<?xml version="1.0" encoding="UTF-8"?>
<svg width="63px" height="63px" viewBox="0 0 63 63" version="1.1" xmlns="http://www.w3.org/2000/svg" xmlns:xlink="http://www.w3.org/1999/xlink">
    <!-- Generator: Sketch 58 (84663) - https://sketch.com -->
    <title>icon_courage</title>
    <desc>Created with Sketch.</desc>
    <g id="Angular-House---Update" stroke="none" stroke-width="1" fill="none" fill-rule="evenodd">
        <g id="Career---Desktop-1200px" transform="translate(-358.000000, -3095.000000)" stroke-width="3">
            <g id="Our-Passion" transform="translate(360.000000, 2909.000000)">
                <g id="Development" transform="translate(0.000000, 137.000000)">
                    <g id="icon_courage" transform="translate(0.000000, 51.000000)">
                        <path d="M37.23,5.765 L53.17,21.704" id="Path" stroke="#14223D"></path>
                        <path d="M30.98,9.233 C21.0595586,4.92146341 9.48219466,8.71155932 4.032,18.055 L13.22,27.243" id="Path" stroke="#14223D"></path>
                        <path d="M49.714,27.9 C54.1064553,37.8396817 50.3308588,49.4927998 40.944,54.968 L31.718,45.742" id="Path" stroke="#14223D"></path>
                        <path d="M24.384,49.778 L9.222,34.616 C9.222,34.616 22.173,2.4 58.5,0.5 C56.447,36.669 24.384,49.778 24.384,49.778 Z" id="Path" stroke="#14223D" stroke-linecap="square"></path>
                        <circle id="Oval" stroke="#FC3B56" stroke-linecap="square" cx="32.5" cy="26.5" r="6"></circle>
                        <path d="M4.257,46.257 C6.60034419,43.9136558 10.3996558,43.9136558 12.743,46.257 C15.0863442,48.6003442 15.0863442,52.3996558 12.743,54.743 C9.743,57.743 0.5,58.5 0.5,58.5 C0.5,58.5 1.257,49.257 4.257,46.257 Z" id="Path" stroke="#FC3B56" stroke-linecap="square"></path>
                    </g>
                </g>
            </g>
        </g>
    </g>
</svg>