<?xml version="1.0" encoding="UTF-8"?>
<svg width="63px" height="57px" viewBox="0 0 63 57" version="1.1" xmlns="http://www.w3.org/2000/svg" xmlns:xlink="http://www.w3.org/1999/xlink">
    <!-- Generator: Sketch 58 (84663) - https://sketch.com -->
    <title>icon_respect</title>
    <desc>Created with Sketch.</desc>
    <g id="Angular-House---Update" stroke="none" stroke-width="1" fill="none" fill-rule="evenodd">
        <g id="Career---Desktop-1200px" transform="translate(-461.000000, -3335.000000)" stroke-width="3">
            <g id="Our-Passion" transform="translate(360.000000, 2909.000000)">
                <g id="Development-Copy-3" transform="translate(103.000000, 377.000000)">
                    <g id="icon_respect" transform="translate(0.000000, 51.000000)">
                        <path d="M45.544,33.671 L49.353,37.479 C50.8857406,39.0130898 50.8857406,41.4989102 49.353,43.033 L49.353,43.033 C47.8190241,44.5669588 45.3319759,44.5669588 43.798,43.033 L39.991,39.227" id="Path" stroke="#FC3B56" stroke-linecap="square"></path>
                        <path d="M34.474,44.744 L36.261,46.532 C37.7837562,48.0549952 37.7837562,50.5240048 36.261,52.047 L36.261,52.047 C35.5295084,52.7802171 34.5357037,53.1912728 33.5,53.1890094" id="Path" stroke="#FC3B56" stroke-linecap="square"></path>
                        <polyline id="Path" stroke="#FC3B56" stroke-linecap="square" points="4.5 24.5 4.5 18.5 0.5 14.5 14.5 0.5 17.5 3.5 22.5 3.5"></polyline>
                        <rect id="Rectangle" stroke="#14223D" stroke-linecap="square" transform="translate(12.410184, 39.159259) rotate(-45.000000) translate(-12.410184, -39.159259) " x="7.75418351" y="35.2317593" width="9.312" height="7.855" rx="3.9275"></rect>
                        <rect id="Rectangle" stroke="#14223D" stroke-linecap="square" transform="translate(24.337132, 49.336883) rotate(-45.000000) translate(-24.337132, -49.336883) " x="20.0651325" y="45.4368831" width="8.544" height="7.8" rx="3.9"></rect>
                        <path d="M10.131,35.883 L9.551,36.463 C8.81628206,37.1991696 7.81156109,37.6014369 6.77180385,37.5757265 C5.73204661,37.5500162 4.74843533,37.0985829 4.051,36.327 L4.051,36.327 C2.70808199,34.8415835 2.74832908,32.5689356 4.143,31.132 L4.723,30.539 C6.1783234,29.0500538 8.56081702,29.0094761 10.066,30.448 L10.066,30.448 C10.8060996,31.1541834 11.2302224,32.1289343 11.2424556,33.1518188 C11.2546888,34.1747034 10.8539991,35.1593186 10.131,35.883 L10.131,35.883 Z" id="Path" stroke="#14223D" stroke-linecap="square"></path>
                        <rect id="Rectangle" stroke="#14223D" stroke-linecap="square" transform="translate(18.337038, 44.306070) rotate(-45.000000) translate(-18.337038, -44.306070) " x="14.2310376" y="40.4060696" width="8.212" height="7.8" rx="3.9"></rect>
                        <path d="M43.037,42.276 C43.7685654,43.0074149 44.1795671,43.9995167 44.1795671,45.034 C44.1795671,46.0684833 43.7685654,47.0605851 43.037,47.792 L43.037,47.792 C41.5140048,49.3147562 39.0449952,49.3147562 37.522,47.792 L36.23,46.5" id="Path" stroke="#FC3B56" stroke-linecap="square"></path>
                        <path d="M48.276,36.4 C49.0115521,37.1345614 50.0159195,37.5357197 51.0551293,37.5100229 C52.094339,37.484326 53.0776521,37.0340178 53.776,36.264 L53.776,36.264 C55.118918,34.7785835 55.0786709,32.5059356 53.684,31.069 L40.976,18.01" id="Path" stroke="#FC3B56"></path>
                        <path d="M54.5,24.5 L54.5,18.5 L58.5,14.5 L44.5,0.5 L41.5,3.5 L34.947,3.5 C31.746073,3.4998183 28.6762227,4.77142843 26.413,7.035 L17.207,16.606 C15.9832548,17.8556182 15.9072092,19.8297977 17.0311999,21.169851 C18.1551906,22.5099043 20.1124779,22.778594 21.556,21.791 L31.356,15.473 C33.0683831,17.4146914 35.540774,18.5153655 38.129538,18.4884852 C40.7183019,18.4616049 43.1673046,17.3098297 44.839,15.333" id="Path" stroke="#14223D" stroke-linecap="square"></path>
                    </g>
                </g>
            </g>
        </g>
    </g>
</svg>