<?xml version="1.0" encoding="UTF-8"?>
<svg width="63px" height="62px" viewBox="0 0 63 62" version="1.1" xmlns="http://www.w3.org/2000/svg" xmlns:xlink="http://www.w3.org/1999/xlink">
    <!-- Generator: Sketch 58 (84663) - https://sketch.com -->
    <title>icon_commitment</title>
    <desc>Created with Sketch.</desc>
    <g id="Angular-House---Update" stroke="none" stroke-width="1" fill="none" fill-rule="evenodd">
        <g id="Career---Desktop-1200px" transform="translate(-1188.000000, -3096.000000)" stroke-width="3">
            <g id="Our-Passion" transform="translate(360.000000, 2909.000000)">
                <g id="Development-Copy-2" transform="translate(829.000000, 137.000000)">
                    <g id="icon_commitment" transform="translate(0.000000, 51.000000)">
                        <path d="M30.5,33.5 L30.5,23.5" id="Path" stroke="#FC3B56"></path>
                        <path d="M20.5,2.5 L13.5,2.5 L13.5,7.5 C13.5,13.5 16.7,16.5 20.7,16.5" id="Path" stroke="#FC3B56"></path>
                        <path d="M40.5,2.5 L47.5,2.5 L47.5,7.5 C47.5,13.5 44.3,16.5 40.3,16.5" id="Path" stroke="#FC3B56"></path>
                        <path d="M20.5,0.5 L40.5,0.5 L40.5,13.5 C40.5,19.0228475 36.0228475,23.5 30.5,23.5 L30.5,23.5 C24.9771525,23.5 20.5,19.0228475 20.5,13.5 L20.5,0.5 Z" id="Path" stroke="#FC3B56" stroke-linecap="square"></path>
                        <path d="M23.5,33.5 L37.5,33.5" id="Path" stroke="#FC3B56" stroke-linecap="square"></path>
                        <path d="M12.4999999,60.5 L12.4999999,56.5 L1.944,44.185 C1.01200256,43.0974102 0.499811682,41.7122957 0.499999948,40.28 L0.499999948,22 C0.499999948,20.0670034 2.06700338,18.5 3.99999995,18.5 L3.99999995,18.5 C5.93299662,18.5 7.49999995,20.0670034 7.49999995,22 L7.49999995,33.63" id="Path" stroke="#14223D"></path>
                        <path d="M24.5,60.5 L24.5,46.985 C24.5,45.3939746 23.8679295,43.8681201 22.743,42.743 L13,33 C12.3370282,32.3368279 11.4377253,31.9642449 10.5,31.9642449 C9.56227468,31.9642449 8.66297177,32.3368279 8,33 L8,33 C7.33682792,33.6629718 6.96424489,34.5622747 6.96424489,35.5 C6.96424489,36.4377253 7.33682792,37.3370282 8,38 L15.5,45.5" id="Path" stroke="#14223D"></path>
                        <path d="M48.5,60.5 L48.5,56.5 L59.056,44.185 C59.9879974,43.0974102 60.5001883,41.7122957 60.5,40.28 L60.5,22 C60.5,20.0670034 58.9329966,18.5 57,18.5 L57,18.5 C55.0670034,18.5 53.5,20.0670034 53.5,22 L53.5,33.63" id="Path" stroke="#14223D"></path>
                        <path d="M36.5,60.5 L36.5,46.985 C36.5,45.3939746 37.1320705,43.8681201 38.257,42.743 L48,33 C48.6629718,32.3368279 49.5622747,31.9642449 50.5,31.9642449 C51.4377253,31.9642449 52.3370282,32.3368279 53,33 L53,33 C53.6631721,33.6629718 54.0357551,34.5622747 54.0357551,35.5 C54.0357551,36.4377253 53.6631721,37.3370282 53,38 L45.5,45.5" id="Path" stroke="#14223D"></path>
                    </g>
                </g>
            </g>
        </g>
    </g>
</svg>