<?xml version="1.0" encoding="UTF-8"?>
<svg width="16px" height="16px" viewBox="0 0 16 16" version="1.1" xmlns="http://www.w3.org/2000/svg" xmlns:xlink="http://www.w3.org/1999/xlink">
    <!-- Generator: Sketch 57.1 (83088) - https://sketch.com -->
    <title>clock-outline</title>
    <desc>Created with Sketch.</desc>
    <g id="Angular-House" stroke="none" stroke-width="1" fill="none" fill-rule="evenodd">
        <g id="Strona-główna---Desktop-1200px" transform="translate(-972.000000, -2992.000000)" fill="#14223D" fill-rule="nonzero">
            <g id="Blog" transform="translate(145.000000, 2506.000000)">
                <g id="Box-Blog-small" transform="translate(629.000000, 117.000000)">
                    <g id="Conto">
                        <g id="Czas-czytania" transform="translate(198.000000, 368.000000)">
                            <g id="clock-outline" transform="translate(0.000000, 1.000000)">
                                <path d="M8,14.4 C11.5346224,14.4 14.4,11.5346224 14.4,8 C14.4,4.4653776 11.5346224,1.6 8,1.6 C4.4653776,1.6 1.6,4.4653776 1.6,8 C1.6,11.5346224 4.4653776,14.4 8,14.4 L8,14.4 Z M8,-4.4408921e-16 C10.1217319,-4.4408921e-16 12.1565632,0.842854723 13.6568542,2.34314575 C15.1571453,3.84343678 16,5.87826808 16,8 C16,12.418278 12.418278,16 8,16 C3.576,16 0,12.4 0,8 C0,3.581722 3.581722,-4.4408921e-16 8,-4.4408921e-16 L8,-4.4408921e-16 Z M8.4,4 L8.4,8.2 L12,10.336 L11.4,11.32 L7.2,8.8 L7.2,4 L8.4,4 Z" id="Shape"></path>
                            </g>
                        </g>
                    </g>
                </g>
            </g>
        </g>
    </g>
</svg>