<?xml version="1.0" encoding="UTF-8"?>
<svg width="20px" height="20px" viewBox="0 0 20 20" version="1.1" xmlns="http://www.w3.org/2000/svg" xmlns:xlink="http://www.w3.org/1999/xlink">
    <!-- Generator: Sketch 57.1 (83088) - https://sketch.com -->
    <title>emoticon-excited-outline</title>
    <desc>Created with Sketch.</desc>
    <g id="Angular-House" stroke="none" stroke-width="1" fill="none" fill-rule="evenodd">
        <g id="Baza-wiedzy---Post---Desktop-1200px" transform="translate(-460.000000, -3546.000000)" fill="#8C98AF" fill-rule="nonzero">
            <g id="Content-Area" transform="translate(360.000000, 151.000000)">
                <g id="Below-content" transform="translate(0.000000, 2858.000000)">
                    <g id="Sekcja-komentarzy" transform="translate(0.000000, 418.000000)">
                        <g id="Napisz-komentarz">
                            <g id="emoticon-excited-outline" transform="translate(100.000000, 119.000000)">
                                <path d="M10,0 C4.47,0 0,4.47 0,10 C0,15.53 4.47,20 10,20 C15.5228475,20 20,15.5228475 20,10 C20,4.47 15.5,0 10,0 L10,0 Z M10,18 C5.581722,18 2,14.418278 2,10 C2,5.581722 5.581722,2 10,2 C12.1217319,2 14.1565632,2.84285472 15.6568542,4.34314575 C17.1571453,5.84343678 18,7.87826808 18,10 C18,14.418278 14.418278,18 10,18 L10,18 Z M11,7.94 L12.06,9 L13.12,7.94 L14.18,9 L15.24,7.94 L13.12,5.82 L11,7.94 L11,7.94 Z M6.88,7.94 L7.94,9 L9,7.94 L6.88,5.82 L4.76,7.94 L5.82,9 L6.88,7.94 L6.88,7.94 Z M10,15.5 C12.33,15.5 14.31,14.04 15.11,12 L4.89,12 C5.69,14.04 7.67,15.5 10,15.5 Z" id="Shape"></path>
                            </g>
                        </g>
                    </g>
                </g>
            </g>
        </g>
    </g>
</svg>