<?xml version="1.0" encoding="utf-8"?>
<!-- Generator: Adobe Illustrator 16.0.0, SVG Export Plug-In . SVG Version: 6.00 Build 0)  -->
<!DOCTYPE svg PUBLIC "-//W3C//DTD SVG 1.1//EN" "http://www.w3.org/Graphics/SVG/1.1/DTD/svg11.dtd">
<svg version="1.1" id="Layer_1" xmlns="http://www.w3.org/2000/svg" xmlns:xlink="http://www.w3.org/1999/xlink" x="0px" y="0px"
	 width="2030.611px" height="401.898px" viewBox="270.583 271.015 2030.611 401.898"
	 enable-background="new 270.583 271.015 2030.611 401.898" xml:space="preserve">
<path fill="none" d="M0,0.075h2500v939.851H0V0.075z"/>
<g>
	<path fill="#FFFFFF" d="M1315.987,466.213c-16.768,0-28.854,5.498-41.109,11.1V604.06c11.738,1.118,18.468,1.118,29.605,1.118
		c40.244,0,45.761-18.43,45.761-44.163v-60.536C1350.244,481.476,1343.938,466.213,1315.987,466.213L1315.987,466.213z
		 M1048.712,459.296c-27.923,0-34.295,15.329-34.295,34.313v10.667h68.553v-10.667
		C1082.97,474.625,1076.598,459.296,1048.712,459.296z M530.949,591.222c0,15.019,7.087,22.819,22.726,22.819
		c16.776,0,26.711-5.47,38.957-11.091v-30.065h-36.683C538.581,572.885,530.949,576.119,530.949,591.222z M1575.978,466.213
		c-27.97,0-37.66,15.263-37.66,34.267v69.352c0,19.051,9.69,34.361,37.66,34.361c27.895,0,37.66-15.311,37.66-34.361v-69.352
		C1613.628,481.475,1603.863,466.213,1575.978,466.213z M393.882,668.985h-82.218V469.981h-41.081V401.41h41.09v-41.185
		c0-55.949,23.186-89.21,89.088-89.21h54.869v68.59h-34.295c-25.658,0-27.35,9.587-27.35,27.472l-0.103,34.323h62.124l-7.266,68.572
		h-54.858V668.985L393.882,668.985z M674.868,669.502h-68.524l-2.96-17.33c-31.288,17.33-59.211,20.141-77.632,20.141
		c-50.254,0-77.002-33.571-77.002-80c0-54.774,31.212-74.323,87.049-74.323h56.833v-11.842c0-27.961-3.205-36.166-46.203-36.166
		h-70.301l6.87-68.571h76.842c94.343,0,115.028,29.803,115.028,105.291V669.502L674.868,669.502z M907.886,475.01
		c-42.642-7.312-54.888-8.919-75.404-8.919c-36.852,0-47.989,8.13-47.989,39.427v59.201c0,31.297,11.138,39.464,47.989,39.464
		c20.517,0,32.763-1.635,75.404-8.976v66.89c-37.35,8.374-61.683,10.573-82.247,10.573c-88.271,0-123.354-46.42-123.354-113.478
		v-48.036c0-67.114,35.084-113.618,123.354-113.618c20.564,0,44.897,2.208,82.247,10.62V475.01L907.886,475.01z M1165.179,559.192
		h-150.771v5.526c0,31.297,11.146,39.464,47.988,39.464c33.12,0,53.337-1.635,95.902-8.976v66.89
		c-41.053,8.374-62.443,10.573-102.716,10.573c-88.28,0-123.384-46.42-123.384-113.478v-54.925
		c0-58.675,26.043-106.729,116.504-106.729c90.46,0,116.476,47.5,116.476,106.729V559.192z M1432.443,560.461
		c0,64.813-18.524,112.087-130.742,112.087c-40.526,0-64.295-3.563-109.022-10.442V291.617l82.189-13.713V407.5
		c17.764-6.598,40.752-9.952,61.674-9.952c82.199,0,95.893,36.852,95.893,96.071v66.842H1432.443z M1695.912,561.871
		c0,55.911-23.083,110.141-119.662,110.141c-96.626,0-120.141-54.229-120.141-110.141v-53.985
		c0-55.939,23.515-110.179,120.141-110.179c96.579,0,119.662,54.239,119.662,110.179V561.871z M1959.201,561.871
		c0,55.911-23.11,110.141-119.671,110.141c-96.626,0-120.141-54.229-120.141-110.141v-53.985
		c0-55.939,23.515-110.179,120.141-110.179c96.561,0,119.671,54.239,119.671,110.179V561.871z M2229.398,668.985h-89.088
		l-75.348-125.78v125.78h-82.219V291.607l82.219-13.713v242.942l75.348-119.427h89.088l-82.255,130.329L2229.398,668.985z
		 M1839.248,466.213c-27.923,0-37.612,15.263-37.612,34.267v69.352c0,19.051,9.689,34.361,37.612,34.361
		c27.886,0,37.754-15.311,37.754-34.361v-69.352C1877.002,481.475,1867.134,466.213,1839.248,466.213L1839.248,466.213z
		 M2276.325,622.05c13.844,0,24.868,11.287,24.868,25.385c0,14.314-11.033,25.479-24.972,25.479
		c-13.872,0-25.122-11.165-25.122-25.479c0-14.098,11.25-25.385,25.122-25.385H2276.325z M2276.222,625.997
		c-11.156,0-20.281,9.596-20.281,21.438c0,12.059,9.135,21.532,20.385,21.532c11.26,0.112,20.254-9.474,20.254-21.419
		c0-11.946-8.994-21.551-20.254-21.551H2276.222z M2271.494,662.209h-4.511v-28.327c2.368-0.329,4.624-0.657,8.008-0.657
		c4.285,0,7.086,0.901,8.806,2.133c1.664,1.25,2.557,3.158,2.557,5.855c0,3.74-2.462,5.986-5.498,6.898v0.216
		c2.472,0.461,4.154,2.698,4.728,6.861c0.658,4.408,1.344,6.09,1.785,7.012h-4.727c-0.668-0.922-1.354-3.506-1.918-7.237
		c-0.658-3.6-2.48-4.953-6.09-4.953h-3.13v12.199H2271.494z M2271.494,646.532h3.271c3.703,0,6.852-1.362,6.852-4.868
		c0-2.481-1.785-4.953-6.852-4.953c-1.475,0-2.5,0.113-3.271,0.216V646.532L2271.494,646.532z"/>
</g>
</svg>
