<?xml version="1.0" encoding="UTF-8"?>
<svg width="22px" height="22px" viewBox="0 0 22 22" version="1.1" xmlns="http://www.w3.org/2000/svg" xmlns:xlink="http://www.w3.org/1999/xlink">
    <!-- Generator: Sketch 57.1 (83088) - https://sketch.com -->
    <title>github-sign</title>
    <desc>Created with Sketch.</desc>
    <g id="Angular-House" stroke="none" stroke-width="1" fill="none" fill-rule="evenodd">
        <g id="Strona-główna---Desktop-1200px" transform="translate(-1538.000000, -3882.000000)" fill-rule="nonzero">
            <g id="Footer" transform="translate(360.000000, 3861.000000)">
                <g id="github-sign" transform="translate(1178.000000, 21.000000)">
                    <path d="M7.92666515,17.6701093 C7.77386788,17.698574 7.70711617,17.770287 7.72625968,17.8846469 C7.74530296,17.9990569 7.83114806,18.0372938 7.98374487,17.9990569 C8.13654214,17.9609704 8.20324374,17.8940683 8.18405011,17.7987517 C8.16510706,17.6939134 8.07926196,17.6509157 7.92666515,17.6701093 Z" id="Path" fill="#000000"></path>
                    <path d="M7.1110615,17.7846697 C6.95841458,17.7846697 6.88214123,17.8368383 6.88214123,17.9419772 C6.88214123,18.065959 6.96327563,18.1182779 7.12534396,18.0992346 C7.27799089,18.0992346 7.35436446,18.0467654 7.35436446,17.9419772 C7.35436446,17.8181458 7.27323007,17.7654761 7.1110615,17.7846697 Z" id="Path" fill="#000000"></path>
                    <path d="M5.99507517,17.7414214 C5.95698861,17.84641 6.01902961,17.9177722 6.18104784,17.9561093 C6.32412301,18.0130888 6.41477904,17.984574 6.4528656,17.8702141 C6.48153075,17.765426 6.41948975,17.689303 6.26689294,17.6412938 C6.12376765,17.6032574 6.03321185,17.6361822 5.99507517,17.7414214 Z" id="Path" fill="#000000"></path>
                    <path d="M20.7676993,1.20889749 C19.9616674,0.403015945 18.9913622,0 17.8560319,0 L4.12061503,0 C2.98563554,0 2.0149795,0.403015945 1.20889749,1.20889749 C0.403015945,2.01492938 0,2.98558542 0,4.12061503 L0,17.8562323 C0,18.9913121 0.403015945,19.9618679 1.20889749,20.7677494 C2.01492938,21.5737813 2.98563554,21.9767973 4.12061503,21.9767973 L7.32554897,21.9767973 C7.53522551,21.9767973 7.69273349,21.9695809 7.79762187,21.955549 C7.90246014,21.9411162 8.00729841,21.8790752 8.11228702,21.7692756 C8.21732574,21.6596765 8.26964465,21.4998633 8.26964465,21.2900866 C8.26964465,21.2616219 8.26713895,20.9369841 8.26242825,20.3170251 C8.2575672,19.6968656 8.25521185,19.2056993 8.25521185,18.8431754 L7.9261139,18.9004556 C7.71628702,18.9385421 7.45158542,18.9553303 7.13200911,18.9505194 C6.81258314,18.9457084 6.48102961,18.9124328 6.13769932,18.8503918 C5.79416856,18.7883007 5.4747426,18.6452756 5.1790205,18.4213166 C4.88344875,18.1969567 4.67362187,17.9037403 4.54958998,17.5413667 L4.40646469,17.2120683 C4.31109795,16.9929203 4.16095672,16.7495672 3.95584055,16.4827107 C3.75072437,16.2155034 3.54330296,16.0342415 3.33347608,15.9388747 L3.23329841,15.8673121 C3.16659681,15.8196538 3.10460592,15.7621731 3.04732574,15.6954715 C2.99014579,15.6285695 2.94724829,15.5617175 2.91863326,15.4951663 C2.89001822,15.4282642 2.91377221,15.3733895 2.99014579,15.3303417 C3.06651936,15.2874943 3.20468337,15.266246 3.40508884,15.266246 L3.69113895,15.3090934 C3.88197267,15.34718 4.11790888,15.4615399 4.39944875,15.6524237 C4.68078815,15.8431572 4.91206378,16.0911207 5.09332574,16.3962642 C5.3128246,16.7874533 5.57727563,17.0853303 5.88743052,17.2904465 C6.19733485,17.4957631 6.50979499,17.5982961 6.82451025,17.5982961 C7.13922551,17.5982961 7.41104328,17.5744419 7.64006378,17.5269339 C7.86883371,17.4791253 8.08347153,17.4074123 8.28387699,17.3120456 C8.3697221,16.6730433 8.6034533,16.1815262 8.98487016,15.8381959 C8.44123462,15.7809157 7.95242369,15.6951708 7.51828702,15.5806105 C7.08440091,15.4660501 6.63603189,15.2801777 6.17348064,15.0225421 C5.71072893,14.7649567 5.32685649,14.445631 5.02161276,14.0638633 C4.71641913,13.6820957 4.46594989,13.1813576 4.27055581,12.561549 C4.0750615,11.9413895 3.97728929,11.2259134 3.97728929,10.415221 C3.97728929,9.26114806 4.3541959,8.27851481 5.10770843,7.46782232 C4.75470615,6.59984966 4.78803189,5.62703872 5.20778588,4.54908884 C5.48441458,4.46319362 5.89464692,4.52764009 6.43828246,4.7422779 C6.98201822,4.95706606 7.38012301,5.14073349 7.63299772,5.29312984 C7.88587244,5.44557631 8.08848292,5.57446925 8.24112984,5.67950797 C9.12839636,5.43149431 10.0440273,5.30751253 10.9882733,5.30751253 C11.9324692,5.30751253 12.8482506,5.43149431 13.7355672,5.67950797 L14.2792528,5.33612756 C14.6513986,5.10710706 15.0900957,4.89728018 15.5956948,4.70659681 C16.1012437,4.51586333 16.4874715,4.46334396 16.7546788,4.54923918 C17.183754,5.62718907 17.2221412,6.6 16.8688884,7.46792255 C17.6224009,8.27871526 17.9994077,9.26129841 17.9994077,10.4153713 C17.9994077,11.2262141 17.9016355,11.9440957 17.7061412,12.5687153 C17.5107973,13.1934852 17.2581731,13.6944237 16.947918,14.07118 C16.6380137,14.4479863 16.2516355,14.7649066 15.7890843,15.0226424 C15.3264328,15.2800774 14.8781139,15.4663007 14.4440273,15.5805103 C14.0099909,15.6950706 13.5212301,15.7811663 12.9775444,15.8384465 C13.473221,16.2675216 13.7211845,16.9445604 13.7211845,17.8699636 L13.7211845,21.2896355 C13.7211845,21.4518542 13.7448383,21.5829021 13.7925467,21.6830797 C13.8405558,21.7832073 13.9167289,21.852164 14.0216173,21.8906014 C14.1269567,21.9286879 14.2195171,21.952492 14.3008018,21.9619636 C14.3820866,21.9715353 14.4987016,21.9763462 14.6513485,21.9763462 L17.8562825,21.9763462 C18.991262,21.9763462 19.9619681,21.5733303 20.7676492,20.7672984 C21.5736811,19.9612665 21.976697,18.9905604 21.976697,17.8555809 L21.976697,4.12061503 C21.976697,2.98558542 21.5735809,2.01477904 20.7676993,1.20889749 Z" id="Path" fill="#14223D"></path>
                    <path d="M4.34953531,15.9961048 C4.28283371,16.0436128 4.29235535,16.1199362 4.37820046,16.2248747 C4.47371754,16.3201913 4.54994077,16.334574 4.60722096,16.2677221 C4.67392255,16.2202141 4.66440091,16.1438907 4.57840547,16.0387517 C4.48308884,15.9530569 4.40681549,15.9386743 4.34953531,15.9961048 Z" id="Path" fill="#000000"></path>
                    <path d="M3.87751253,15.6383918 C3.84894761,15.7052938 3.88232346,15.762574 3.97769021,15.810082 C4.05391344,15.8579408 4.11610478,15.8485194 4.16366287,15.7816173 C4.19222779,15.7147153 4.15885194,15.6574351 4.06348519,15.6095763 C3.96811845,15.5809112 3.90612756,15.590533 3.87751253,15.6383918 Z" id="Path" fill="#000000"></path>
                    <path d="M4.79319362,16.5541731 C4.70724829,16.6016811 4.70724829,16.6877768 4.79319362,16.8116082 C4.87903872,16.9357904 4.95997267,16.9690661 5.03639636,16.9117358 C5.12229157,16.8448838 5.12229157,16.7542779 5.03639636,16.6397677 C4.96017312,16.5160866 4.87903872,16.4871207 4.79319362,16.5541731 Z" id="Path" fill="#000000"></path>
                    <path d="M5.294082,17.1977859 C5.20818679,17.2742597 5.22712984,17.3645148 5.35131207,17.4698041 C5.46562187,17.5840137 5.56103872,17.5983964 5.63736219,17.5123508 C5.71373576,17.4362278 5.69464237,17.345672 5.58013212,17.2407335 C5.46582232,17.1264738 5.37040547,17.112041 5.294082,17.1977859 Z" id="Path" fill="#000000"></path>
                </g>
            </g>
        </g>
    </g>
</svg>