<?xml version="1.0" encoding="UTF-8"?>
<svg width="133px" height="16px" viewBox="0 0 133 16" version="1.1" xmlns="http://www.w3.org/2000/svg" xmlns:xlink="http://www.w3.org/1999/xlink">
    <!-- Generator: Sketch 57.1 (83088) - https://sketch.com -->
    <title>HouseofAngular</title>
    <desc>Created with Sketch.</desc>
    <g id="Angular-House" stroke="none" stroke-width="1" fill="none" fill-rule="evenodd">
        <g id="Strona-główna---Desktop-1200px" transform="translate(-361.000000, -3887.000000)" fill="#152743" fill-rule="nonzero">
            <g id="Footer" transform="translate(360.000000, 3861.000000)">
                <g id="Logo" transform="translate(0.000000, 24.000000)">
                    <path d="M11.12,2.64 L11.12,14 L8.928,14 L8.928,9.152 L3.776,9.152 L3.776,14 L1.568,14 L1.568,2.64 L3.776,2.64 L3.776,7.232 L8.928,7.232 L8.928,2.64 L11.12,2.64 Z M17.152,14.16 C16.4693299,14.16 15.8560027,14.0426678 15.312,13.808 C14.7679973,13.5733322 14.3066686,13.256002 13.928,12.856 C13.5493314,12.455998 13.2586677,11.9946693 13.056,11.472 C12.8533323,10.9493307 12.752,10.4000029 12.752,9.824 C12.752,9.2373304 12.8533323,8.68266928 13.056,8.16 C13.2586677,7.63733072 13.5493314,7.176002 13.928,6.776 C14.3066686,6.375998 14.7679973,6.05866784 15.312,5.824 C15.8560027,5.58933216 16.4693299,5.472 17.152,5.472 C17.8346701,5.472 18.4453306,5.58933216 18.984,5.824 C19.5226694,6.05866784 19.9813314,6.375998 20.36,6.776 C20.7386686,7.176002 21.0293323,7.63733072 21.232,8.16 C21.4346677,8.68266928 21.536,9.2373304 21.536,9.824 C21.536,10.4000029 21.4346677,10.9493307 21.232,11.472 C21.0293323,11.9946693 20.7413352,12.455998 20.368,12.856 C19.9946648,13.256002 19.5360027,13.5733322 18.992,13.808 C18.4479973,14.0426678 17.8346701,14.16 17.152,14.16 Z M14.96,9.824 C14.96,10.1973352 15.0159994,10.5359985 15.128,10.84 C15.2400006,11.1440015 15.3946657,11.4079989 15.592,11.632 C15.7893343,11.8560011 16.021332,12.0293327 16.288,12.152 C16.554668,12.2746673 16.8426651,12.336 17.152,12.336 C17.4613349,12.336 17.749332,12.2746673 18.016,12.152 C18.282668,12.0293327 18.5146657,11.8560011 18.712,11.632 C18.9093343,11.4079989 19.0639994,11.1413349 19.176,10.832 C19.2880006,10.5226651 19.344,10.1813352 19.344,9.808 C19.344,9.44533152 19.2880006,9.10933488 19.176,8.8 C19.0639994,8.49066512 18.9093343,8.22400112 18.712,8 C18.5146657,7.77599888 18.282668,7.60266728 18.016,7.48 C17.749332,7.35733272 17.4613349,7.296 17.152,7.296 C16.8426651,7.296 16.554668,7.35999936 16.288,7.488 C16.021332,7.61600064 15.7893343,7.79199888 15.592,8.016 C15.3946657,8.24000112 15.2400006,8.50666512 15.128,8.816 C15.0159994,9.12533488 14.96,9.46133152 14.96,9.824 Z M25.536,14.16 C24.6719957,14.16 24.0160022,13.8826694 23.568,13.328 C23.1199978,12.7733306 22.896,11.9520054 22.896,10.864 L22.896,5.616 L25.04,5.616 L25.04,10.4 C25.04,11.6906731 25.5039954,12.336 26.432,12.336 C26.8480021,12.336 27.2506647,12.2106679 27.64,11.96 C28.0293353,11.7093321 28.3466654,11.3280026 28.592,10.816 L28.592,5.616 L30.736,5.616 L30.736,11.536 C30.736,11.7600011 30.7759996,11.9199995 30.856,12.016 C30.9360004,12.1120005 31.0666658,12.1653333 31.248,12.176 L31.248,14 C31.0346656,14.0426669 30.8560007,14.0693333 30.712,14.08 C30.5679993,14.0906667 30.4373339,14.096 30.32,14.096 C29.9359981,14.096 29.6240012,14.0080009 29.384,13.832 C29.1439988,13.6559991 29.0026669,13.4133349 28.96,13.104 L28.912,12.432 C28.5386648,13.0080029 28.0586696,13.4399986 27.472,13.728 C26.8853304,14.0160014 26.2400035,14.16 25.536,14.16 Z M36.032,14.16 C35.3279965,14.16 34.6400034,14.0480011 33.968,13.824 C33.2959966,13.5999989 32.7200024,13.2800021 32.24,12.864 L33.04,11.52 C33.5520026,11.8826685 34.0506642,12.1573324 34.536,12.344 C35.0213358,12.5306676 35.5039976,12.624 35.984,12.624 C36.4106688,12.624 36.7466654,12.5440008 36.992,12.384 C37.2373346,12.2239992 37.36,11.9946682 37.36,11.696 C37.36,11.3973318 37.2160014,11.1786674 36.928,11.04 C36.6399986,10.9013326 36.1706699,10.7413342 35.52,10.56 C34.9759973,10.4106659 34.5120019,10.2666674 34.128,10.128 C33.7439981,9.98933264 33.4346678,9.83200088 33.2,9.656 C32.9653322,9.47999912 32.7946672,9.27733448 32.688,9.048 C32.5813328,8.81866552 32.528,8.5440016 32.528,8.224 C32.528,7.7973312 32.6106658,7.41333504 32.776,7.072 C32.9413342,6.73066496 33.1733318,6.4400012 33.472,6.2 C33.7706682,5.9599988 34.119998,5.77600064 34.52,5.648 C34.920002,5.51999936 35.3546643,5.456 35.824,5.456 C36.4533365,5.456 37.0426639,5.54666576 37.592,5.728 C38.1413361,5.90933424 38.645331,6.20266464 39.104,6.608 L38.24,7.904 C37.8133312,7.5839984 37.400002,7.34933408 37,7.2 C36.599998,7.05066592 36.2026686,6.976 35.808,6.976 C35.4453315,6.976 35.1413346,7.05066592 34.896,7.2 C34.6506654,7.34933408 34.528,7.58933168 34.528,7.92 C34.528,8.06933408 34.557333,8.19199952 34.616,8.288 C34.674667,8.38400048 34.7679994,8.46933296 34.896,8.544 C35.0240006,8.61866704 35.191999,8.69066632 35.4,8.76 C35.608001,8.82933368 35.8666651,8.90133296 36.176,8.976 C36.7520029,9.12533408 37.2453313,9.27466592 37.656,9.424 C38.0666687,9.57333408 38.4026654,9.74399904 38.664,9.936 C38.9253346,10.128001 39.1173327,10.3493321 39.24,10.6 C39.3626673,10.8506679 39.424,11.1519982 39.424,11.504 C39.424,12.3253374 39.120003,12.973331 38.512,13.448 C37.903997,13.922669 37.0773386,14.16 36.032,14.16 Z M44.704,14.16 C44.0319966,14.16 43.4240027,14.0453345 42.88,13.816 C42.3359973,13.5866655 41.8720019,13.2746686 41.488,12.88 C41.1039981,12.4853314 40.808001,12.0266693 40.6,11.504 C40.391999,10.9813307 40.288,10.4320029 40.288,9.856 C40.288,9.25866368 40.3893323,8.69600264 40.592,8.168 C40.7946677,7.63999736 41.0879981,7.176002 41.472,6.776 C41.8560019,6.375998 42.3226639,6.05866784 42.872,5.824 C43.4213361,5.58933216 44.0373299,5.472 44.72,5.472 C45.4026701,5.472 46.0133306,5.58933216 46.552,5.824 C47.0906694,6.05866784 47.5493314,6.37333136 47.928,6.768 C48.3066686,7.16266864 48.5946657,7.62133072 48.792,8.144 C48.9893343,8.66666928 49.088,9.21066384 49.088,9.776 C49.088,9.91466736 49.0853334,10.0479994 49.08,10.176 C49.0746666,10.3040006 49.0613334,10.4106662 49.04,10.496 L42.56,10.496 C42.5920002,10.8266683 42.6719994,11.1199987 42.8,11.376 C42.9280006,11.6320013 43.0933323,11.8506658 43.296,12.032 C43.4986677,12.2133342 43.7279987,12.3519995 43.984,12.448 C44.2400013,12.5440005 44.5066653,12.592 44.784,12.592 C45.2106688,12.592 45.6133314,12.488001 45.992,12.28 C46.3706686,12.071999 46.6293326,11.797335 46.768,11.456 L48.608,11.968 C48.2986651,12.6080032 47.8053367,13.1333313 47.128,13.544 C46.4506633,13.9546687 45.6426714,14.16 44.704,14.16 Z M46.88,9.104 C46.8266664,8.47466352 46.5946687,7.97066856 46.184,7.592 C45.7733313,7.21333144 45.2746696,7.024 44.688,7.024 C44.3999986,7.024 44.1306679,7.07466616 43.88,7.176 C43.6293321,7.27733384 43.408001,7.41866576 43.216,7.6 C43.023999,7.78133424 42.8666673,7.99999872 42.744,8.256 C42.6213327,8.51200128 42.5493334,8.79466512 42.528,9.104 L46.88,9.104 Z M58.112,14.16 C57.4293299,14.16 56.8160027,14.0426678 56.272,13.808 C55.7279973,13.5733322 55.2666686,13.256002 54.888,12.856 C54.5093314,12.455998 54.2186677,11.9946693 54.016,11.472 C53.8133323,10.9493307 53.712,10.4000029 53.712,9.824 C53.712,9.2373304 53.8133323,8.68266928 54.016,8.16 C54.2186677,7.63733072 54.5093314,7.176002 54.888,6.776 C55.2666686,6.375998 55.7279973,6.05866784 56.272,5.824 C56.8160027,5.58933216 57.4293299,5.472 58.112,5.472 C58.7946701,5.472 59.4053306,5.58933216 59.944,5.824 C60.4826694,6.05866784 60.9413314,6.375998 61.32,6.776 C61.6986686,7.176002 61.9893323,7.63733072 62.192,8.16 C62.3946677,8.68266928 62.496,9.2373304 62.496,9.824 C62.496,10.4000029 62.3946677,10.9493307 62.192,11.472 C61.9893323,11.9946693 61.7013352,12.455998 61.328,12.856 C60.9546648,13.256002 60.4960027,13.5733322 59.952,13.808 C59.4079973,14.0426678 58.7946701,14.16 58.112,14.16 Z M55.92,9.824 C55.92,10.1973352 55.9759994,10.5359985 56.088,10.84 C56.2000006,11.1440015 56.3546657,11.4079989 56.552,11.632 C56.7493343,11.8560011 56.981332,12.0293327 57.248,12.152 C57.514668,12.2746673 57.8026651,12.336 58.112,12.336 C58.4213349,12.336 58.709332,12.2746673 58.976,12.152 C59.242668,12.0293327 59.4746657,11.8560011 59.672,11.632 C59.8693343,11.4079989 60.0239994,11.1413349 60.136,10.832 C60.2480006,10.5226651 60.304,10.1813352 60.304,9.808 C60.304,9.44533152 60.2480006,9.10933488 60.136,8.8 C60.0239994,8.49066512 59.8693343,8.22400112 59.672,8 C59.4746657,7.77599888 59.242668,7.60266728 58.976,7.48 C58.709332,7.35733272 58.4213349,7.296 58.112,7.296 C57.8026651,7.296 57.514668,7.35999936 57.248,7.488 C56.981332,7.61600064 56.7493343,7.79199888 56.552,8.016 C56.3546657,8.24000112 56.2000006,8.50666512 56.088,8.816 C55.9759994,9.12533488 55.92,9.46133152 55.92,9.824 Z M64.448,14 L64.448,7.696 L63.344,7.696 L63.344,6.064 L64.448,6.064 L64.448,5.552 C64.448,4.50666144 64.6986642,3.68000304 65.2,3.072 C65.7013358,2.46399696 66.3839957,2.16 67.248,2.16 C67.9306701,2.16 68.6186632,2.32533168 69.312,2.656 L68.88,4.272 C68.7199992,4.18666624 68.5306678,4.11466696 68.312,4.056 C68.0933322,3.99733304 67.8933342,3.968 67.712,3.968 C66.9653296,3.968 66.592,4.46932832 66.592,5.472 L66.592,6.064 L68.64,6.064 L68.64,7.696 L66.592,7.696 L66.592,14 L64.448,14 Z M77.136,2.64 L79.088,2.64 L83.408,14 L81.136,14 L80.08,11.168 L76.112,11.168 L75.072,14 L72.8,14 L77.136,2.64 Z M79.68,9.616 L78.112,5.152 L76.48,9.616 L79.68,9.616 Z M92.24,14 L90.096,14 L90.096,9.296 C90.096,8.62399664 89.9786678,8.13333488 89.744,7.824 C89.5093322,7.51466512 89.1840021,7.36 88.768,7.36 C88.5546656,7.36 88.3360011,7.40266624 88.112,7.488 C87.8879989,7.57333376 87.6773343,7.69333256 87.48,7.848 C87.2826657,8.00266744 87.1040008,8.1866656 86.944,8.4 C86.7839992,8.6133344 86.666667,8.84799872 86.592,9.104 L86.592,14 L84.448,14 L84.448,5.616 L86.384,5.616 L86.384,7.168 C86.6933349,6.634664 87.1413304,6.21866816 87.728,5.92 C88.3146696,5.62133184 88.9759963,5.472 89.712,5.472 C90.2346693,5.472 90.6613317,5.56799904 90.992,5.76 C91.3226683,5.95200096 91.5786658,6.20266512 91.76,6.512 C91.9413342,6.82133488 92.0666663,7.17333136 92.136,7.568 C92.2053337,7.96266864 92.24,8.36266464 92.24,8.768 L92.24,14 Z M97.392,14.048 C96.8266638,14.048 96.314669,13.9360011 95.856,13.712 C95.397331,13.4879989 95.0000017,13.1813353 94.664,12.792 C94.3279983,12.4026647 94.0693342,11.9520026 93.888,11.44 C93.7066658,10.9279974 93.616,10.3840029 93.616,9.808 C93.616,9.19999696 93.711999,8.63466928 93.904,8.112 C94.096001,7.58933072 94.362665,7.13066864 94.704,6.736 C95.045335,6.34133136 95.4559976,6.03200112 95.936,5.808 C96.4160024,5.58399888 96.9439971,5.472 97.52,5.472 C98.1706699,5.472 98.7413309,5.6186652 99.232,5.912 C99.7226691,6.2053348 100.127998,6.59733088 100.448,7.088 L100.448,5.616 L102.32,5.616 L102.32,13.6 C102.32,14.2186698 102.202668,14.7733309 101.968,15.264 C101.733332,15.7546691 101.410669,16.170665 101,16.512 C100.589331,16.853335 100.09867,17.1146658 99.528,17.296 C98.9573305,17.4773342 98.3360034,17.568 97.664,17.568 C96.7466621,17.568 95.9760031,17.4160015 95.352,17.112 C94.7279969,16.8079985 94.1920022,16.3786694 93.744,15.824 L94.912,14.688 C95.2320016,15.0826686 95.6346642,15.3919989 96.12,15.616 C96.6053358,15.8400011 97.1199973,15.952 97.664,15.952 C97.9946683,15.952 98.3119985,15.9066671 98.616,15.816 C98.9200015,15.7253329 99.1893322,15.584001 99.424,15.392 C99.6586678,15.199999 99.842666,14.9546682 99.976,14.656 C100.109334,14.3573318 100.176,14.0053354 100.176,13.6 L100.176,12.544 C99.8986653,13.0240024 99.5093358,13.3946654 99.008,13.656 C98.5066642,13.9173346 97.9680029,14.048 97.392,14.048 Z M98.112,12.336 C98.3466678,12.336 98.5706656,12.298667 98.784,12.224 C98.9973344,12.149333 99.1946658,12.0480006 99.376,11.92 C99.5573342,11.7919994 99.7173326,11.6426675 99.856,11.472 C99.9946674,11.3013325 100.101333,11.120001 100.176,10.928 L100.176,8.928 C99.983999,8.43733088 99.6826687,8.04266816 99.272,7.744 C98.8613313,7.44533184 98.4320022,7.296 97.984,7.296 C97.6533317,7.296 97.354668,7.36799928 97.088,7.512 C96.821332,7.65600072 96.592001,7.8479988 96.4,8.088 C96.207999,8.3280012 96.0613338,8.60266512 95.96,8.912 C95.8586662,9.22133488 95.808,9.54133168 95.808,9.872 C95.808,10.213335 95.8666661,10.5333318 95.984,10.832 C96.1013339,11.1306682 96.263999,11.3919989 96.472,11.616 C96.680001,11.8400011 96.9226653,12.0159994 97.2,12.144 C97.4773347,12.2720006 97.7813317,12.336 98.112,12.336 Z M106.816,14.16 C105.951996,14.16 105.296002,13.8826694 104.848,13.328 C104.399998,12.7733306 104.176,11.9520054 104.176,10.864 L104.176,5.616 L106.32,5.616 L106.32,10.4 C106.32,11.6906731 106.783995,12.336 107.712,12.336 C108.128002,12.336 108.530665,12.2106679 108.92,11.96 C109.309335,11.7093321 109.626665,11.3280026 109.872,10.816 L109.872,5.616 L112.016,5.616 L112.016,11.536 C112.016,11.7600011 112.056,11.9199995 112.136,12.016 C112.216,12.1120005 112.346666,12.1653333 112.528,12.176 L112.528,14 C112.314666,14.0426669 112.136001,14.0693333 111.992,14.08 C111.847999,14.0906667 111.717334,14.096 111.6,14.096 C111.215998,14.096 110.904001,14.0080009 110.664,13.832 C110.423999,13.6559991 110.282667,13.4133349 110.24,13.104 L110.192,12.432 C109.818665,13.0080029 109.33867,13.4399986 108.752,13.728 C108.16533,14.0160014 107.520004,14.16 106.816,14.16 Z M114.128,2.32 L116.272,2.32 L116.272,11.312 C116.272,11.6213349 116.346666,11.8613325 116.496,12.032 C116.645334,12.2026675 116.858665,12.288 117.136,12.288 C117.264001,12.288 117.405333,12.2666669 117.56,12.224 C117.714667,12.1813331 117.861333,12.1280003 118,12.064 L118.288,13.696 C117.999999,13.8346674 117.664002,13.941333 117.28,14.016 C116.895998,14.090667 116.549335,14.128 116.24,14.128 C115.567997,14.128 115.048002,13.9493351 114.68,13.592 C114.311998,13.2346649 114.128,12.7253366 114.128,12.064 L114.128,2.32 Z M121.504,14.16 C121.098665,14.16 120.720002,14.093334 120.368,13.96 C120.015998,13.826666 119.712001,13.6400012 119.456,13.4 C119.199999,13.1599988 119.000001,12.8800016 118.856,12.56 C118.711999,12.2399984 118.64,11.8880019 118.64,11.504 C118.64,11.1093314 118.727999,10.7440017 118.904,10.408 C119.080001,10.0719983 119.325332,9.78666784 119.64,9.552 C119.954668,9.31733216 120.330664,9.133334 120.768,9 C121.205336,8.866666 121.685331,8.8 122.208,8.8 C122.581335,8.8 122.946665,8.83199968 123.304,8.896 C123.661335,8.96000032 123.978665,9.05066608 124.256,9.168 L124.256,8.688 C124.256,8.13333056 124.098668,7.70666816 123.784,7.408 C123.469332,7.10933184 123.00267,6.96 122.384,6.96 C121.935998,6.96 121.498669,7.0399992 121.072,7.2 C120.645331,7.3600008 120.208002,7.59466512 119.76,7.904 L119.104,6.544 C120.181339,5.82932976 121.343994,5.472 122.592,5.472 C123.797339,5.472 124.73333,5.76799704 125.4,6.36 C126.06667,6.95200296 126.4,7.8079944 126.4,8.928 L126.4,11.536 C126.4,11.7600011 126.44,11.9199995 126.52,12.016 C126.6,12.1120005 126.730666,12.1653333 126.912,12.176 L126.912,14 C126.549332,14.074667 126.234668,14.112 125.968,14.112 C125.562665,14.112 125.250668,14.0213342 125.032,13.84 C124.813332,13.6586658 124.677334,13.4186682 124.624,13.12 L124.576,12.656 C124.202665,13.1466691 123.749336,13.5199987 123.216,13.776 C122.682664,14.0320013 122.112003,14.16 121.504,14.16 Z M122.112,12.592 C122.474668,12.592 122.818665,12.5280006 123.144,12.4 C123.469335,12.2719994 123.722666,12.1013344 123.904,11.888 C124.138668,11.7066658 124.256,11.5040011 124.256,11.28 L124.256,10.32 C123.999999,10.2239995 123.722668,10.146667 123.424,10.088 C123.125332,10.029333 122.837335,10 122.56,10 C122.005331,10 121.552002,10.1253321 121.2,10.376 C120.847998,10.6266679 120.672,10.9439981 120.672,11.328 C120.672,11.6906685 120.810665,11.9919988 121.088,12.232 C121.365335,12.4720012 121.706665,12.592 122.112,12.592 Z M133.392,7.472 C132.74133,7.48266672 132.160003,7.6079988 131.648,7.848 C131.135997,8.0880012 130.768001,8.4479976 130.544,8.928 L130.544,14 L128.4,14 L128.4,5.616 L130.368,5.616 L130.368,7.408 C130.517334,7.11999856 130.693332,6.86133448 130.896,6.632 C131.098668,6.40266552 131.317332,6.20266752 131.552,6.032 C131.786668,5.86133248 132.023999,5.73066712 132.264,5.64 C132.504001,5.54933288 132.735999,5.504 132.96,5.504 L133.224,5.504 C133.282667,5.504 133.338666,5.50933328 133.392,5.52 L133.392,7.472 Z" id="HouseofAngular"></path>
                </g>
            </g>
        </g>
    </g>
</svg>