<?xml version="1.0" encoding="UTF-8"?>
<svg width="62px" height="62px" viewBox="0 0 62 62" version="1.1" xmlns="http://www.w3.org/2000/svg" xmlns:xlink="http://www.w3.org/1999/xlink">
    <!-- Generator: Sketch 57.1 (83088) - https://sketch.com -->
    <title>icon_audyt</title>
    <desc>Created with Sketch.</desc>
    <g id="Angular-House" stroke="none" stroke-width="1" fill="none" fill-rule="evenodd" stroke-linecap="round" stroke-linejoin="round">
        <g id="Hire-us---Desktop-1200px" transform="translate(-929.000000, -971.000000)" stroke-width="2">
            <g id="Our-Passion" transform="translate(400.000000, 785.000000)">
                <g id="Audyt" transform="translate(415.000000, 117.000000)">
                    <g id="icon_audyt" transform="translate(115.000000, 70.000000)">
                        <path d="M41.3752759,11.3793103 C37.7504483,4.35 30.3818276,0 21.8856207,0 C9.80182759,0 0.000103448276,9.72827586 0.000103448276,21.7241379 C0.000103448276,33.72 9.80182759,43.4482759 21.8856207,43.4482759 C30.3859655,43.4482759 37.7587241,39.0962069 41.3794138,32.0689655" id="Stroke-1" stroke="#000000"></path>
                        <path d="M38.0011034,37.9990345 L60.0004138,60.0004138" id="Stroke-3" stroke="#000000"></path>
                        <path d="M10.3448276,21.7241379 L18.6206897,21.7241379" id="Stroke-5" stroke="#296AD0"></path>
                        <path d="M40.3448276,21.7241379 L48.6206897,21.7241379" id="Stroke-7" stroke="#296AD0"></path>
                        <path d="M18.6206897,21.7241379 L23.7889655,11.4093103" id="Stroke-9" stroke="#296AD0"></path>
                        <path d="M32.0225172,30 L40.344931,21.7241379" id="Stroke-11" stroke="#296AD0"></path>
                        <path d="M32.0225172,30 L23.789069,11.4093103" id="Stroke-13" stroke="#296AD0"></path>
                    </g>
                </g>
            </g>
        </g>
    </g>
</svg>