<?xml version="1.0" encoding="UTF-8"?>
<svg width="60px" height="60px" viewBox="0 0 60 60" version="1.1" xmlns="http://www.w3.org/2000/svg" xmlns:xlink="http://www.w3.org/1999/xlink">
    <!-- Generator: Sketch 57.1 (83088) - https://sketch.com -->
    <title>icon_consulting</title>
    <desc>Created with Sketch.</desc>
    <g id="Angular-House" stroke="none" stroke-width="1" fill="none" fill-rule="evenodd" stroke-linecap="round" stroke-linejoin="round">
        <g id="Hire-us---Desktop-1200px" transform="translate(-1345.000000, -972.000000)" stroke-width="2">
            <g id="Our-Passion" transform="translate(400.000000, 785.000000)">
                <g id="Consulting" transform="translate(829.000000, 117.000000)">
                    <g id="icon_consulting" transform="translate(117.000000, 71.000000)">
                        <path d="M12,45.999 C12,48.201 10.2,50 8.002,50 L4,50 C1.801,50 0,48.201 0,45.999 L0,34 C0,31.799 1.801,30 4,30 L8.002,30 C10.2,30 12,31.799 12,34 L12,45.999 Z" id="Stroke-1" stroke="#000000"></path>
                        <path d="M58,45.999 C58,48.201 56.2,50 54.002,50 L50,50 C47.801,50 46,48.201 46,45.999 L46,34 C46,31.799 47.801,30 50,30 L54.002,30 C56.2,30 58,31.799 58,34 L58,45.999 Z" id="Stroke-3" stroke="#000000"></path>
                        <path d="M0,34.8008 L0,28.9998 C0,12.9868 12.981,-0.0002 29,-0.0002 C45.015,-0.0002 58,12.9868 58,28.9998 L58,34.8008" id="Stroke-5" stroke="#000000"></path>
                        <polygon id="Stroke-7" stroke="#296AD0" points="26 58 32 58 32 56 26 56"></polygon>
                        <polyline id="Stroke-9" stroke="#296AD0" points="58 30.9336 58 50.2666 38.668 57.9996 30.934 57.9996"></polyline>
                    </g>
                </g>
            </g>
        </g>
    </g>
</svg>