<?xml version="1.0" encoding="UTF-8"?>
<svg width="20px" height="18px" viewBox="0 0 20 18" version="1.1" xmlns="http://www.w3.org/2000/svg" xmlns:xlink="http://www.w3.org/1999/xlink">
    <!-- Generator: Sketch 57.1 (83088) - https://sketch.com -->
    <title>icon_camera</title>
    <desc>Created with Sketch.</desc>
    <g id="Angular-House" stroke="none" stroke-width="1" fill="none" fill-rule="evenodd">
        <g id="Baza-wiedzy---Post---Desktop-1200px" transform="translate(-521.000000, -3546.000000)" fill="#8C98AF" fill-rule="nonzero">
            <g id="Content-Area" transform="translate(360.000000, 151.000000)">
                <g id="Below-content" transform="translate(0.000000, 2858.000000)">
                    <g id="Sekcja-komentarzy" transform="translate(0.000000, 418.000000)">
                        <g id="Napisz-komentarz">
                            <g id="icon_camera" transform="translate(161.000000, 119.000000)">
                                <path d="M2,2 L5,2 L7,0 L13,0 L15,2 L18,2 C19.1045695,2 20,2.8954305 20,4 L20,16 C20,17.1045695 19.1045695,18 18,18 L2,18 C0.8954305,18 0,17.1045695 0,16 L0,4 C0,2.8954305 0.8954305,2 2,2 L2,2 Z M10,5 C7.23857625,5 5,7.23857625 5,10 C5,12.7614237 7.23857625,15 10,15 C12.7614237,15 15,12.7614237 15,10 C15,7.23857625 12.7614237,5 10,5 L10,5 Z M10,7 C11.6568542,7 13,8.34314575 13,10 C13,11.6568542 11.6568542,13 10,13 C8.34314575,13 7,11.6568542 7,10 C7,8.34314575 8.34314575,7 10,7 Z" id="Shape"></path>
                            </g>
                        </g>
                    </g>
                </g>
            </g>
        </g>
    </g>
</svg>