<?xml version="1.0" encoding="UTF-8"?>
<svg width="54px" height="63px" viewBox="0 0 54 63" version="1.1" xmlns="http://www.w3.org/2000/svg" xmlns:xlink="http://www.w3.org/1999/xlink">
    <!-- Generator: Sketch 58 (84663) - https://sketch.com -->
    <title>icon_sport</title>
    <desc>Created with Sketch.</desc>
    <g id="Angular-House---Update" stroke="none" stroke-width="1" fill="none" fill-rule="evenodd">
        <g id="Job-Offer---Desktop-1200px" transform="translate(-359.000000, -2471.000000)" stroke-width="3">
            <g id="Benefits" transform="translate(0.000000, 1953.000000)">
                <g id="4" transform="translate(360.000000, 467.000000)">
                    <g id="icon_sport" transform="translate(0.000000, 51.000000)">
                        <circle id="Oval" stroke="#14223D" stroke-linecap="square" cx="24.5" cy="11.5" r="6"></circle>
                        <path d="M18.642,45.553 L22.686,47.447 L24.526,59.247 C24.6563139,60.5704289 25.8024544,61.5585912 27.1306471,61.4926355 C28.4588397,61.4266798 29.5014422,60.3298285 29.5000015,59 C29.5000015,58.912 28.484,45.2 28.484,45.2 C28.3783544,44.1800505 27.7590838,43.2847105 26.842,42.826 L14.977,36.884 C14.483271,36.6365647 14.2835943,36.0357439 14.531,35.542 C14.5792401,35.4468715 14.641991,35.35983 14.717,35.284 L21.092,28.9" id="Path" stroke="#14223D"></path>
                        <path d="M18.5,27.5 L26.89,32.031 C27.3711747,32.3371956 27.9296626,32.4998855 28.5,32.5 L39.905,32.5 C41.3370378,32.4972487 42.4972487,31.3370378 42.5,29.905 L42.5,29.905 C42.497758,28.5482851 41.452697,27.421361 40.1,27.317 L29.374,26.5 L16.974,19.472 C14.9399194,18.3184986 12.3780155,18.7288684 10.806,20.46 L3.113,28.931 C-0.0117316199,32.0375953 -0.418135626,36.953431 2.154,40.531 L7.787,48.475 L2.057,57.432 C1.21155584,58.4995351 1.37961172,60.0480491 2.43438798,60.9093586 C3.48916424,61.7706682 5.04001763,61.6257816 5.917,60.584 C5.967,60.524 6.017,60.461 6.057,60.396 L13.903,50.282 C14.6757495,49.2367699 14.6874579,47.8127954 13.932,46.755 L9.23,40.161" id="Path" stroke="#14223D" stroke-linecap="square"></path>
                        <ellipse id="Oval" stroke="#FC3B56" stroke-linecap="square" transform="translate(44.741892, 9.327664) rotate(-77.382000) translate(-44.741892, -9.327664) " cx="44.7418916" cy="9.32766414" rx="7.901" ry="6.145"></ellipse>
                        <path d="M43.016,17.038 L41.692,22.953" id="Path" stroke="#FC3B56" stroke-linecap="square"></path>
                    </g>
                </g>
            </g>
        </g>
    </g>
</svg>