<?xml version="1.0" encoding="UTF-8"?>
<svg width="55px" height="63px" viewBox="0 0 55 63" version="1.1" xmlns="http://www.w3.org/2000/svg" xmlns:xlink="http://www.w3.org/1999/xlink">
    <!-- Generator: Sketch 58 (84663) - https://sketch.com -->
    <title>icon_remote</title>
    <desc>Created with Sketch.</desc>
    <g id="Angular-House---Update" stroke="none" stroke-width="1" fill="none" fill-rule="evenodd">
        <g id="Job-Offer---Desktop-1200px" transform="translate(-1191.000000, -2240.000000)" stroke-width="3">
            <g id="Benefits" transform="translate(0.000000, 1953.000000)">
                <g id="3" transform="translate(1189.000000, 237.000000)">
                    <g id="icon_remote" transform="translate(3.000000, 51.000000)">
                        <path d="M11.597,55.808 C13.237,54.596 14.496,51.513 14.496,51.513 C14.496,51.513 15.913,50.529 16.356,49.273 C16.799,48.017 16.381,46.311 16.381,46.311 C16.381,46.311 17.637,42.625 17.046,41.591 C16.455,40.557 13.944,39.892 13.944,39.892 C13.944,39.892 12.91,37.972 10.768,37.602 C9.364,37.455 7.96,36.494 7.96,34.5 C7.96,32.506 9.954,29.256 9.954,29.256 C9.954,29.256 12.022,28.244 12.318,27.506 C12.614,26.768 12.714,25.046 12.714,25.046 C12.714,25.046 14.681,21.574 13.573,19.58 C13.22,18.944 11.579,18.472 11.579,18.472 L9.278,15.021" id="Path" stroke="#14223D"></path>
                        <path d="M47.019,50.47 C44.51,49.267 40.121,48.263 40.121,48.263 C40.121,48.263 36.914,44.693 34.809,44.989 C32.704,45.285 30.562,47.648 30.562,47.648 C30.562,47.648 30.71,52.006 30.045,52.228 C29.38,52.45 27.607,51.268 26.5,52.154 C25.392,53.04 26.031,55.539 26.031,55.539 C26.031,55.539 23.619,56.291 23.324,57.103 C23.029,57.915 24.202,59.725 24.425,60.419" id="Path" stroke="#14223D"></path>
                        <path d="M27.061,8.514 C26.873,8.51 26.689,8.5 26.5,8.5 C12.141,8.5 0.5,20.141 0.5,34.5 C0.5,48.859 12.141,60.5 26.5,60.5 C40.859,60.5 52.5,48.859 52.5,34.5 C52.5,31.709 52.06,29.021 51.246,26.501" id="Path" stroke="#14223D"></path>
                        <path d="M50.5,12.188 C50.5,19.402 38.5,30.5 38.5,30.5 C38.5,30.5 26.5,19.402 26.5,12.188 C26.5,4.792 32.701,0.5 38.5,0.5 C44.299,0.5 50.5,4.792 50.5,12.188 Z" id="Path" stroke="#FC3B56" stroke-linecap="square"></path>
                        <circle id="Oval" stroke="#FC3B56" stroke-linecap="square" cx="38.5" cy="12.5" r="4"></circle>
                    </g>
                </g>
            </g>
        </g>
    </g>
</svg>