<?xml version="1.0" encoding="UTF-8"?>
<svg width="18px" height="18px" viewBox="0 0 18 18" version="1.1" xmlns="http://www.w3.org/2000/svg" xmlns:xlink="http://www.w3.org/1999/xlink">
    <!-- Generator: Sketch 57.1 (83088) - https://sketch.com -->
    <title>icon_search_dark</title>
    <desc>Created with Sketch.</desc>
    <g id="Angular-House" stroke="none" stroke-width="1" fill="none" fill-rule="evenodd">
        <g id="Baza-wiedzy---Desktop-1200px" transform="translate(-1077.000000, -199.000000)" fill="#152743" fill-rule="nonzero">
            <g id="Group" transform="translate(360.000000, 151.000000)">
                <g id="Search-input" transform="translate(30.000000, 30.000000)">
                    <g id="icon_search_dark" transform="translate(687.000000, 18.000000)">
                        <path d="M6.5,-4.4408921e-16 C10.0898509,-4.4408921e-16 13,2.91014913 13,6.5 C13,8.11 12.41,9.59 11.44,10.73 L11.71,11 L12.5,11 L17.5,16 L16,17.5 L11,12.5 L11,11.71 L10.73,11.44 C9.59,12.41 8.11,13 6.5,13 C2.91014913,13 8.8817842e-16,10.0898509 8.8817842e-16,6.5 C8.8817842e-16,2.91014913 2.91014913,-4.4408921e-16 6.5,-4.4408921e-16 L6.5,-4.4408921e-16 Z M6.5,2 C4,2 2,4 2,6.5 C2,9 4,11 6.5,11 C9,11 11,9 11,6.5 C11,4 9,2 6.5,2 Z" id="Shape"></path>
                    </g>
                </g>
            </g>
        </g>
    </g>
</svg>