<?xml version="1.0" encoding="UTF-8"?>
<svg width="569px" height="449px" viewBox="0 0 569 449" version="1.1" xmlns="http://www.w3.org/2000/svg" xmlns:xlink="http://www.w3.org/1999/xlink">
    <!-- Generator: Sketch 57.1 (83088) - https://sketch.com -->
    <title>Illustration</title>
    <desc>Created with Sketch.</desc>
    <defs>
        <path d="M74.9928771,16.8423184 C71.5939944,20.0526536 66.4114525,20.4787709 62.625419,17.7347765 L62.625419,17.7347765 C54.6548883,11.9614525 45.373324,8.84036313 37.8678771,16.4451117 L37.8678771,16.4451117 C29.9828212,24.4357542 26.6555866,22.8318436 23.2177374,21.227933 L23.2177374,21.227933 C21.4177374,20.3882682 19.5875698,19.5486034 17.0572626,20.0853352 L17.0572626,20.0853352 C11.1506983,21.3372905 3.75335196,30.8539106 1.05083799,34.577095 L1.05083799,34.577095 C0.576955307,35.2307263 1.14888268,36.0628492 2.07150838,36.0628492 L2.07150838,36.0628492 L48.0632682,36.0628492 L61.2892458,36.0628492 L78.2044693,36.0628492 L105.459637,36.0628492 L172.860335,36.0628492 C173.873464,36.0628492 174.597486,35.3803073 174.606285,34.6336592 L174.606285,34.6336592 L174.606285,34.6047486 C174.602514,34.3634078 174.524581,34.1157821 174.356145,33.8844972 L174.356145,33.8844972 C170.396648,28.427933 159.553911,14.4829609 150.899581,12.6477654 L150.899581,12.6477654 C147.190223,11.8608939 144.507821,13.0914804 141.87067,14.322067 L141.87067,14.322067 C136.832682,16.6726257 131.956844,19.0231844 120.402654,7.31438547 L120.402654,7.31438547 C115.768156,2.61829609 110.669832,0.711452514 105.449581,0.711452514 L105.449581,0.711452514 C94.8632682,0.711452514 83.7703911,8.54874302 74.9928771,16.8423184" id="path-1"></path>
        <linearGradient x1="50.0000333%" y1="100.000009%" x2="50.0000333%" y2="0.000671312758%" id="linearGradient-3">
            <stop stop-color="#FFFFFF" offset="0%"></stop>
            <stop stop-color="#FFFFFF" offset="100%"></stop>
        </linearGradient>
        <path d="M23.3044693,15.1202514 C20.2977654,16.9881285 18.5606145,16.1572626 16.7794693,15.3289106 L16.7794693,15.3289106 C15.5149441,14.7393855 14.2277933,14.1511173 12.451676,14.5269553 L12.451676,14.5269553 C8.30363128,15.4106145 3.1047486,22.1090782 1.20796089,24.7298883 L1.20796089,24.7298883 C0.874860335,25.1912011 1.27583799,25.7756983 1.92444134,25.7756983 L1.92444134,25.7756983 L16.5695531,25.7756983 L34.2339385,25.7756983 L47.6006983,25.7756983 L55.4078212,25.7756983 L94.948743,25.7756983 C95.8977654,25.7756983 96.4885475,24.9171788 95.998324,24.2421788 L95.998324,24.2421788 C93.2178771,20.400838 85.5993017,10.5837989 79.5205307,9.29162011 L79.5205307,9.29162011 C76.9160615,8.73854749 75.0305866,9.60586592 73.1777933,10.4706704 L73.1777933,10.4706704 C69.6393855,12.1261173 66.2128492,13.7815642 58.0965084,5.53701117 L58.0965084,5.53701117 C54.8409218,2.23114525 51.2597765,0.889944134 47.5931564,0.888687151 L47.5931564,0.888687151 C38.9363128,0.888687151 29.7980447,8.3627095 23.3044693,15.1202514" id="path-4"></path>
        <linearGradient x1="49.9998301%" y1="100.002526%" x2="49.9998301%" y2="0.00126572049%" id="linearGradient-6">
            <stop stop-color="#FFFFFF" offset="0%"></stop>
            <stop stop-color="#FFFFFF" offset="100%"></stop>
        </linearGradient>
        <path d="M13.5427374,9.33435754 C11.8106145,10.4103352 10.8100559,9.93268156 9.78310056,9.45502793 L9.78310056,9.45502793 C9.05530726,9.11564246 8.31368715,8.77625698 7.29050279,8.99371508 L7.29050279,8.99371508 C4.89972067,9.50027933 1.90558659,13.3604749 0.812011173,14.8713687 L0.812011173,14.8713687 C0.618435754,15.1365922 0.852234637,15.4734637 1.22430168,15.4734637 L1.22430168,15.4734637 L9.66243017,15.4734637 L19.8402235,15.4734637 L27.5417598,15.4734637 L32.0392458,15.4734637 L54.822067,15.4734637 C55.3688547,15.4734637 55.7082402,14.9794693 55.427933,14.5910615 L55.427933,14.5910615 C53.8240223,12.377514 49.4358939,6.72108939 45.9339385,5.97695531 L45.9339385,5.97695531 C44.4331006,5.65768156 43.347067,6.15796089 42.2786313,6.65698324 L42.2786313,6.65698324 C40.2385475,7.61103352 38.2650838,8.56256983 33.5891061,3.81368715 L33.5891061,3.81368715 C31.7124302,1.90810056 29.6497207,1.13505587 27.5367318,1.13505587 L27.5367318,1.13505587 C22.5490223,1.13505587 17.2835196,5.44148045 13.5427374,9.33435754" id="path-7"></path>
        <linearGradient x1="50.0002082%" y1="100.006132%" x2="50.0002082%" y2="0.000266503024%" id="linearGradient-9">
            <stop stop-color="#FFFFFF" offset="0%"></stop>
            <stop stop-color="#FFFFFF" offset="100%"></stop>
        </linearGradient>
        <path d="M59.1548883,13.3655028 C56.4925978,15.8832402 52.4300279,16.2163408 49.4635475,14.0656425 L49.4635475,14.0656425 C43.2175978,9.54050279 35.9409218,7.09441341 30.0594972,13.0550279 L30.0594972,13.0550279 C23.8789106,19.3173184 21.2706704,18.0603352 18.5756983,16.803352 L18.5756983,16.803352 C17.1653631,16.1459497 15.7311453,15.4872905 13.7476257,15.9083799 L13.7476257,15.9083799 C9.12067039,16.8888268 3.32094972,24.3477654 1.20418994,27.2652235 L1.20418994,27.2652235 C0.830865922,27.7780726 1.27960894,28.4304469 2.0023743,28.4304469 L2.0023743,28.4304469 L38.0513966,28.4304469 L48.4152235,28.4304469 L61.6738827,28.4304469 L83.0350559,28.4304469 L135.862291,28.4304469 C136.921927,28.4304469 137.57933,27.4751397 137.033799,26.7234637 L137.033799,26.7234637 C133.930307,22.4472067 125.431844,11.5177374 118.649162,10.0784916 L118.649162,10.0784916 C115.743017,9.46131285 113.640084,10.426676 111.573603,11.3907821 L111.573603,11.3907821 C107.625419,13.2335196 103.802933,15.075 94.7476257,5.89902235 L94.7476257,5.89902235 C91.1149441,2.21731844 87.1189944,0.724022153 83.027514,0.724022153 L83.027514,0.724022153 C74.7301676,0.722765363 66.0343575,6.86564246 59.1548883,13.3655028" id="path-10"></path>
        <linearGradient x1="49.9999142%" y1="100.000467%" x2="49.9999142%" y2="-0.00178952253%" id="linearGradient-12">
            <stop stop-color="#FFFFFF" offset="0%"></stop>
            <stop stop-color="#FFFFFF" offset="100%"></stop>
        </linearGradient>
        <path d="M0.173463687,11.2097765 C0.113128492,11.247486 0.0590782123,11.2713687 0,11.3053073 L0,11.3053073 L0,19.5624302 L56.324162,19.5624302 C57.0682961,19.5624302 57.5321229,18.8886872 57.147486,18.3594972 L57.147486,18.3594972 C54.9678771,15.3490223 48.9972067,7.65377095 44.2332402,6.64189944 L44.2332402,6.64189944 C42.1918994,6.20824022 40.7149441,6.88701117 39.2618715,7.56578212 L39.2618715,7.56578212 C36.4889665,8.86298883 33.8040503,10.1601955 27.4424581,3.69930168 L27.4424581,3.69930168 C24.8907821,1.10865922 22.0839385,0.0565640436 19.2092179,0.0565640436 L19.2092179,0.0565640436 C12.4240223,0.0553072626 5.26173184,5.91410615 0.173463687,11.2097765" id="path-13"></path>
        <path d="M10.7509777,7.00768156 C9.39343575,7.85111732 8.60782123,7.4777933 7.80335196,7.10321229 L7.80335196,7.10321229 C7.23268156,6.83673184 6.65195531,6.57150838 5.85,6.74120112 L5.85,6.74120112 C3.97583799,7.13840782 1.62905028,10.1639665 0.771787709,11.3480447 L0.771787709,11.3480447 C0.620949721,11.5554469 0.804469274,11.8206704 1.09608939,11.8206704 L1.09608939,11.8206704 L7.70907821,11.8206704 L15.6858939,11.8206704 L21.7219274,11.8206704 L25.2477654,11.8206704 L43.1032123,11.8206704 C43.5318436,11.8206704 43.797067,11.4322626 43.578352,11.1280726 L43.578352,11.1280726 C42.3226257,9.39343575 38.8810056,4.96005587 36.1370112,4.37681564 L36.1370112,4.37681564 C34.9604749,4.12667598 34.1094972,4.51759777 33.2723464,4.90977654 L33.2723464,4.90977654 C31.6734637,5.65642458 30.1273743,6.40307263 26.4620112,2.68114525 L26.4620112,2.68114525 C24.9913408,1.18784916 23.3736034,0.581982889 21.7181564,0.581982889 L21.7181564,0.581982889 C17.8089385,0.580726257 13.6822626,3.95698324 10.7509777,7.00768156" id="path-15"></path>
        <linearGradient x1="50.0004747%" y1="99.9964937%" x2="50.0004747%" y2="-0.00213757805%" id="linearGradient-17">
            <stop stop-color="#FFFFFF" offset="0%"></stop>
            <stop stop-color="#FFFFFF" offset="100%"></stop>
        </linearGradient>
        <linearGradient x1="0%" y1="50.0004983%" x2="100%" y2="50.0004983%" id="linearGradient-18">
            <stop stop-color="#142440" offset="0%"></stop>
            <stop stop-color="#17314F" offset="100%"></stop>
        </linearGradient>
        <path d="M22.1417598,0.804469274 C20.1356145,0.804469274 18.1445531,1.19664804 17.6857542,1.69064246 L17.6857542,1.69064246 L1.00055866,19.6403631 C0.123184358,20.5831006 1.71326816,21.3687151 4.57541899,21.3687151 L4.57541899,21.3687151 L51.9586592,21.3687151 C53.2709497,19.5146648 54.8170391,17.7850559 56.2977654,16.1585196 L56.2977654,16.1585196 C57.1826816,15.1856145 58.1379888,14.2805866 59.0392458,13.3265363 L59.0392458,13.3265363 C59.2089385,13.1518156 59.3648045,12.9657821 59.5307263,12.7872905 L59.5307263,12.7872905 C61.1384078,9.74790503 64.0722067,6.6896648 66.1537709,4.19958101 L66.1537709,4.19958101 C67.197067,2.9551676 68.3509777,1.8527933 69.5539106,0.804469274 L69.5539106,0.804469274 L22.1417598,0.804469274 Z" id="path-19"></path>
        <linearGradient x1="166.614156%" y1="49.9978588%" x2="15.8223987%" y2="49.9978588%" id="linearGradient-21">
            <stop stop-color="#FFFFFF" offset="0%"></stop>
            <stop stop-color="#FFFFFF" offset="100%"></stop>
        </linearGradient>
        <path d="M22.3755587,0.804469274 C20.3694134,0.804469274 18.378352,1.19664804 17.9195531,1.69064246 L17.9195531,1.69064246 L1.23435754,19.6403631 C0.35698324,20.5831006 1.94706704,21.3687151 4.80796089,21.3687151 L4.80796089,21.3687151 L122.270531,21.3687151 C125.131425,21.3687151 126.720251,20.5831006 125.844134,19.6403631 L125.844134,19.6403631 L109.158939,1.69064246 C108.698883,1.19664804 106.707821,0.804469274 104.70419,0.804469274 L104.70419,0.804469274 L22.3755587,0.804469274 Z" id="path-22"></path>
        <linearGradient x1="91.6293615%" y1="49.9984707%" x2="8.70085642%" y2="49.9984707%" id="linearGradient-24">
            <stop stop-color="#FFFFFF" offset="0%"></stop>
            <stop stop-color="#FFFFFF" offset="100%"></stop>
        </linearGradient>
        <path d="M6.0900838,0.413547486 C3.31215084,0.413547486 1.06089385,2.66480447 1.06089385,5.44148045 L1.06089385,5.44148045 L1.06089385,15.9687151 C1.06089385,18.746648 3.31215084,20.996648 6.0900838,20.996648 L6.0900838,20.996648 L102.165084,20.996648 C104.94176,20.996648 107.193017,18.746648 107.193017,15.9687151 L107.193017,15.9687151 L107.193017,5.44148045 C107.193017,2.66480447 104.94176,0.413547486 102.165084,0.413547486 L102.165084,0.413547486 L6.0900838,0.413547486 Z" id="path-25"></path>
        <linearGradient x1="50.0003489%" y1="100.001925%" x2="50.0003489%" y2="0.0019248855%" id="linearGradient-27">
            <stop stop-color="#FFFFFF" offset="0%"></stop>
            <stop stop-color="#FFFFFF" offset="100%"></stop>
        </linearGradient>
        <path d="M5.36857542,0.402234637 C2.59189944,0.402234637 0.340642458,2.65349162 0.340642458,5.4301676 L0.340642458,5.4301676 L0.340642458,15.9574022 C0.340642458,18.7353352 2.59189944,20.9853352 5.36857542,20.9853352 L5.36857542,20.9853352 L101.444832,20.9853352 C104.221508,20.9853352 106.472765,18.7353352 106.472765,15.9574022 L106.472765,15.9574022 L106.472765,5.4301676 C106.472765,2.65349162 104.221508,0.402234637 101.444832,0.402234637 L101.444832,0.402234637 L5.36857542,0.402234637 Z" id="path-28"></path>
        <linearGradient x1="50.0005138%" y1="100.001163%" x2="50.0005138%" y2="0.00116274809%" id="linearGradient-30">
            <stop stop-color="#FFFFFF" offset="0%"></stop>
            <stop stop-color="#FFFFFF" offset="100%"></stop>
        </linearGradient>
    </defs>
    <g id="Angular-House" stroke="none" stroke-width="1" fill="none" fill-rule="evenodd">
        <g id="Strona-główna---Desktop-1200px" transform="translate(-992.000000, -187.000000)">
            <g id="Top">
                <g id="Content" transform="translate(360.000000, 93.000000)">
                    <g id="Illustration" transform="translate(621.000000, 93.000000)">
                        <g id="Group-3" transform="translate(404.748603, 31.792877)">
                            <mask id="mask-2" fill="white">
                                <use xlink:href="#path-1"></use>
                            </mask>
                            <g id="Clip-2"></g>
                            <path d="M74.9928771,16.8423184 C71.5939944,20.0526536 66.4114525,20.4787709 62.625419,17.7347765 L62.625419,17.7347765 C54.6548883,11.9614525 45.373324,8.84036313 37.8678771,16.4451117 L37.8678771,16.4451117 C29.9828212,24.4357542 26.6555866,22.8318436 23.2177374,21.227933 L23.2177374,21.227933 C21.4177374,20.3882682 19.5875698,19.5486034 17.0572626,20.0853352 L17.0572626,20.0853352 C11.1506983,21.3372905 3.75335196,30.8539106 1.05083799,34.577095 L1.05083799,34.577095 C0.576955307,35.2307263 1.14888268,36.0628492 2.07150838,36.0628492 L2.07150838,36.0628492 L48.0632682,36.0628492 L61.2892458,36.0628492 L78.2044693,36.0628492 L105.459637,36.0628492 L172.860335,36.0628492 C173.873464,36.0628492 174.597486,35.3803073 174.606285,34.6336592 L174.606285,34.6336592 L174.606285,34.6047486 C174.602514,34.3634078 174.524581,34.1157821 174.356145,33.8844972 L174.356145,33.8844972 C170.396648,28.427933 159.553911,14.4829609 150.899581,12.6477654 L150.899581,12.6477654 C147.190223,11.8608939 144.507821,13.0914804 141.87067,14.322067 L141.87067,14.322067 C136.832682,16.6726257 131.956844,19.0231844 120.402654,7.31438547 L120.402654,7.31438547 C115.768156,2.61829609 110.669832,0.711452514 105.449581,0.711452514 L105.449581,0.711452514 C94.8632682,0.711452514 83.7703911,8.54874302 74.9928771,16.8423184" id="Fill-1" fill="url(#linearGradient-3)" mask="url(#mask-2)"></path>
                        </g>
                        <g id="Group-6" transform="translate(375.837989, 0.368296)">
                            <mask id="mask-5" fill="white">
                                <use xlink:href="#path-4"></use>
                            </mask>
                            <g id="Clip-5"></g>
                            <path d="M23.3044693,15.1202514 C20.2977654,16.9881285 18.5606145,16.1572626 16.7794693,15.3289106 L16.7794693,15.3289106 C15.5149441,14.7393855 14.2277933,14.1511173 12.451676,14.5269553 L12.451676,14.5269553 C8.30363128,15.4106145 3.1047486,22.1090782 1.20796089,24.7298883 L1.20796089,24.7298883 C0.874860335,25.1912011 1.27583799,25.7756983 1.92444134,25.7756983 L1.92444134,25.7756983 L16.5695531,25.7756983 L34.2339385,25.7756983 L47.6006983,25.7756983 L55.4078212,25.7756983 L94.948743,25.7756983 C95.8977654,25.7756983 96.4885475,24.9171788 95.998324,24.2421788 L95.998324,24.2421788 C93.2178771,20.400838 85.5993017,10.5837989 79.5205307,9.29162011 L79.5205307,9.29162011 C76.9160615,8.73854749 75.0305866,9.60586592 73.1777933,10.4706704 L73.1777933,10.4706704 C69.6393855,12.1261173 66.2128492,13.7815642 58.0965084,5.53701117 L58.0965084,5.53701117 C54.8409218,2.23114525 51.2597765,0.889944134 47.5931564,0.888687151 L47.5931564,0.888687151 C38.9363128,0.888687151 29.7980447,8.3627095 23.3044693,15.1202514" id="Fill-4" fill="url(#linearGradient-6)" mask="url(#mask-5)"></path>
                        </g>
                        <g id="Group-9" transform="translate(517.877095, 5.396229)">
                            <mask id="mask-8" fill="white">
                                <use xlink:href="#path-7"></use>
                            </mask>
                            <g id="Clip-8"></g>
                            <path d="M13.5427374,9.33435754 C11.8106145,10.4103352 10.8100559,9.93268156 9.78310056,9.45502793 L9.78310056,9.45502793 C9.05530726,9.11564246 8.31368715,8.77625698 7.29050279,8.99371508 L7.29050279,8.99371508 C4.89972067,9.50027933 1.90558659,13.3604749 0.812011173,14.8713687 L0.812011173,14.8713687 C0.618435754,15.1365922 0.852234637,15.4734637 1.22430168,15.4734637 L1.22430168,15.4734637 L9.66243017,15.4734637 L19.8402235,15.4734637 L27.5417598,15.4734637 L32.0392458,15.4734637 L54.822067,15.4734637 C55.3688547,15.4734637 55.7082402,14.9794693 55.427933,14.5910615 L55.427933,14.5910615 C53.8240223,12.377514 49.4358939,6.72108939 45.9339385,5.97695531 L45.9339385,5.97695531 C44.4331006,5.65768156 43.347067,6.15796089 42.2786313,6.65698324 L42.2786313,6.65698324 C40.2385475,7.61103352 38.2650838,8.56256983 33.5891061,3.81368715 L33.5891061,3.81368715 C31.7124302,1.90810056 29.6497207,1.13505587 27.5367318,1.13505587 L27.5367318,1.13505587 C22.5490223,1.13505587 17.2835196,5.44148045 13.5427374,9.33435754" id="Fill-7" fill="url(#linearGradient-9)" mask="url(#mask-8)"></path>
                        </g>
                        <g id="Group-12" transform="translate(10.055866, 20.480028)">
                            <mask id="mask-11" fill="white">
                                <use xlink:href="#path-10"></use>
                            </mask>
                            <g id="Clip-11"></g>
                            <path d="M59.1548883,13.3655028 C56.4925978,15.8832402 52.4300279,16.2163408 49.4635475,14.0656425 L49.4635475,14.0656425 C43.2175978,9.54050279 35.9409218,7.09441341 30.0594972,13.0550279 L30.0594972,13.0550279 C23.8789106,19.3173184 21.2706704,18.0603352 18.5756983,16.803352 L18.5756983,16.803352 C17.1653631,16.1459497 15.7311453,15.4872905 13.7476257,15.9083799 L13.7476257,15.9083799 C9.12067039,16.8888268 3.32094972,24.3477654 1.20418994,27.2652235 L1.20418994,27.2652235 C0.830865922,27.7780726 1.27960894,28.4304469 2.0023743,28.4304469 L2.0023743,28.4304469 L38.0513966,28.4304469 L48.4152235,28.4304469 L61.6738827,28.4304469 L83.0350559,28.4304469 L135.862291,28.4304469 C136.921927,28.4304469 137.57933,27.4751397 137.033799,26.7234637 L137.033799,26.7234637 C133.930307,22.4472067 125.431844,11.5177374 118.649162,10.0784916 L118.649162,10.0784916 C115.743017,9.46131285 113.640084,10.426676 111.573603,11.3907821 L111.573603,11.3907821 C107.625419,13.2335196 103.802933,15.075 94.7476257,5.89902235 L94.7476257,5.89902235 C91.1149441,2.21731844 87.1189944,0.724022153 83.027514,0.724022153 L83.027514,0.724022153 C74.7301676,0.722765363 66.0343575,6.86564246 59.1548883,13.3655028" id="Fill-10" fill="url(#linearGradient-12)" mask="url(#mask-11)"></path>
                        </g>
                        <g id="Group-15" transform="translate(0.000000, 2.525279)">
                            <mask id="mask-14" fill="white">
                                <use xlink:href="#path-13"></use>
                            </mask>
                            <g id="Clip-14"></g>
                        </g>
                        <g id="Group-18" transform="translate(23.882682, 59.446508)">
                            <mask id="mask-16" fill="white">
                                <use xlink:href="#path-15"></use>
                            </mask>
                            <g id="Clip-17"></g>
                            <path d="M10.7509777,7.00768156 C9.39343575,7.85111732 8.60782123,7.4777933 7.80335196,7.10321229 L7.80335196,7.10321229 C7.23268156,6.83673184 6.65195531,6.57150838 5.85,6.74120112 L5.85,6.74120112 C3.97583799,7.13840782 1.62905028,10.1639665 0.771787709,11.3480447 L0.771787709,11.3480447 C0.620949721,11.5554469 0.804469274,11.8206704 1.09608939,11.8206704 L1.09608939,11.8206704 L7.70907821,11.8206704 L15.6858939,11.8206704 L21.7219274,11.8206704 L25.2477654,11.8206704 L43.1032123,11.8206704 C43.5318436,11.8206704 43.797067,11.4322626 43.578352,11.1280726 L43.578352,11.1280726 C42.3226257,9.39343575 38.8810056,4.96005587 36.1370112,4.37681564 L36.1370112,4.37681564 C34.9604749,4.12667598 34.1094972,4.51759777 33.2723464,4.90977654 L33.2723464,4.90977654 C31.6734637,5.65642458 30.1273743,6.40307263 26.4620112,2.68114525 L26.4620112,2.68114525 C24.9913408,1.18784916 23.3736034,0.581982889 21.7181564,0.581982889 L21.7181564,0.581982889 C17.8089385,0.580726257 13.6822626,3.95698324 10.7509777,7.00768156" id="Fill-16" fill="url(#linearGradient-17)" mask="url(#mask-16)"></path>
                        </g>
                        <g id="Group-61" transform="translate(87.988827, 103.440922)">
                            <path d="M432.22764,152.06317 L485.755014,152.06317 C488.184763,152.06317 490.154455,150.093478 490.154455,147.663729 L490.154455,135.071271 C490.154455,132.642779 488.184763,130.67183 485.755014,130.67183 L432.22764,130.67183 C429.797891,130.67183 427.828198,132.642779 427.828198,135.071271 L427.828198,147.663729 C427.828198,150.093478 429.797891,152.06317 432.22764,152.06317" id="Fill-19" fill="#2F5087"></path>
                            <path d="M473.779358,148.106816 L483.381453,148.106816 C484.857151,148.106816 486.052542,146.911425 486.052542,145.435726 L486.052542,137.592151 C486.052542,136.117709 484.857151,134.921061 483.381453,134.921061 L473.779358,134.921061 C472.304916,134.921061 471.108268,136.117709 471.108268,137.592151 L471.108268,145.435726 C471.108268,146.911425 472.304916,148.106816 473.779358,148.106816" id="Fill-21" fill="#FFFFFF"></path>
                            <path d="M436.654106,137.826327 L464.334134,137.826327 C464.936229,137.826327 465.423939,138.314036 465.423939,138.914874 C465.423939,139.516969 464.936229,140.003422 464.334134,140.003422 L436.654106,140.003422 C436.052011,140.003422 435.565559,139.516969 435.565559,138.914874 C435.565559,138.314036 436.052011,137.826327 436.654106,137.826327" id="Fill-23" fill="#001D47"></path>
                            <path d="M450.884791,142.731453 L464.334511,142.731453 C464.936606,142.731453 465.423059,143.219162 465.423059,143.82 C465.423059,144.422095 464.936606,144.908547 464.334511,144.908547 L450.884791,144.908547 C450.283953,144.908547 449.7975,144.422095 449.7975,143.82 C449.7975,143.219162 450.283953,142.731453 450.884791,142.731453" id="Fill-25" fill="#001D47"></path>
                            <path d="M432.22764,181.706606 L485.755014,181.706606 C488.184763,181.706606 490.154455,179.736913 490.154455,177.307165 L490.154455,164.714707 C490.154455,162.286215 488.184763,160.315265 485.755014,160.315265 L432.22764,160.315265 C429.797891,160.315265 427.828198,162.286215 427.828198,164.714707 L427.828198,177.307165 C427.828198,179.736913 429.797891,181.706606 432.22764,181.706606" id="Fill-27" fill="#FFFFFF"></path>
                            <path d="M473.779358,177.750251 L483.381453,177.750251 C484.857151,177.750251 486.052542,176.55486 486.052542,175.079162 L486.052542,167.236844 C486.052542,165.761145 484.857151,164.565754 483.381453,164.565754 L473.779358,164.565754 C472.304916,164.565754 471.108268,165.761145 471.108268,167.236844 L471.108268,175.079162 C471.108268,176.55486 472.304916,177.750251 473.779358,177.750251" id="Fill-29" fill="#E0E9F8"></path>
                            <path d="M436.654106,167.469763 L464.334134,167.469763 C464.936229,167.469763 465.423939,167.957472 465.423939,168.55831 C465.423939,169.160405 464.936229,169.646858 464.334134,169.646858 L436.654106,169.646858 C436.052011,169.646858 435.565559,169.160405 435.565559,168.55831 C435.565559,167.957472 436.052011,167.469763 436.654106,167.469763" id="Fill-31" fill="#001D47"></path>
                            <path d="M450.884791,172.374888 L464.334511,172.374888 C464.936606,172.374888 465.423059,172.862598 465.423059,173.463436 C465.423059,174.065531 464.936606,174.551983 464.334511,174.551983 L450.884791,174.551983 C450.283953,174.551983 449.7975,174.065531 449.7975,173.463436 C449.7975,172.862598 450.283953,172.374888 450.884791,172.374888" id="Fill-33" fill="#001D47"></path>
                            <path d="M432.22764,211.350042 L485.755014,211.350042 C488.184763,211.350042 490.154455,209.380349 490.154455,206.950601 L490.154455,194.359399 C490.154455,191.929651 488.184763,189.959958 485.755014,189.959958 L432.22764,189.959958 C429.797891,189.959958 427.828198,191.929651 427.828198,194.359399 L427.828198,206.950601 C427.828198,209.380349 429.797891,211.350042 432.22764,211.350042" id="Fill-35" fill="#6BA5C6"></path>
                            <path d="M473.779358,207.393687 L483.381453,207.393687 C484.857151,207.393687 486.052542,206.198296 486.052542,204.722598 L486.052542,196.880279 C486.052542,195.404581 484.857151,194.20919 483.381453,194.20919 L473.779358,194.20919 C472.304916,194.20919 471.108268,195.404581 471.108268,196.880279 L471.108268,204.722598 C471.108268,206.198296 472.304916,207.393687 473.779358,207.393687" id="Fill-37" fill="#FFFFFF"></path>
                            <path d="M436.654106,197.113198 L464.334134,197.113198 C464.936229,197.113198 465.423939,197.600908 465.423939,198.201746 C465.423939,198.803841 464.936229,199.290293 464.334134,199.290293 L436.654106,199.290293 C436.052011,199.290293 435.565559,198.803841 435.565559,198.201746 C435.565559,197.600908 436.052011,197.113198 436.654106,197.113198" id="Fill-39" fill="#001D47"></path>
                            <path d="M450.884791,202.018324 L464.334511,202.018324 C464.936606,202.018324 465.423059,202.506034 465.423059,203.106872 C465.423059,203.708966 464.936606,204.195419 464.334511,204.195419 L450.884791,204.195419 C450.283953,204.195419 449.7975,203.708966 449.7975,203.106872 C449.7975,202.506034 450.283953,202.018324 450.884791,202.018324" id="Fill-41" fill="#001D47"></path>
                            <path d="M442.457849,308.164777 L10.0556145,308.164777 C4.50226257,308.164777 -0.000251396648,303.66352 -0.000251396648,298.108911 L-0.000251396648,10.6883799 C-0.000251396648,5.13502793 4.50226257,0.632513966 10.0556145,0.632513966 L442.457849,0.632513966 C448.012458,0.632513966 452.513715,5.13502793 452.513715,10.6883799 L452.513715,298.108911 C452.513715,303.66352 448.012458,308.164777 442.457849,308.164777" id="Fill-43" fill="#CEDFE7"></path>
                            <path d="M433.165475,180.379609 L354.783771,180.379609 C352.874413,180.379609 351.327067,178.832263 351.327067,176.922905 L351.327067,126.644832 C351.327067,124.735475 352.874413,123.188128 354.783771,123.188128 L433.165475,123.188128 C435.074832,123.188128 436.622179,124.735475 436.622179,126.644832 L436.622179,176.922905 C436.622179,178.832263 435.074832,180.379609 433.165475,180.379609" id="Fill-45" fill="#FFFFFF"></path>
                            <path d="M427.462416,171.487458 L360.486578,171.487458 C359.331411,171.487458 358.394958,170.551006 358.394958,169.394581 L358.394958,155.233408 C358.394958,154.07824 359.331411,153.141788 360.486578,153.141788 L427.462416,153.141788 C428.617584,153.141788 429.554036,154.07824 429.554036,155.233408 L429.554036,169.394581 C429.554036,170.551006 428.617584,171.487458 427.462416,171.487458" id="Fill-47" fill="#E0E9F8"></path>
                            <path d="M418.58007,129.319567 C419.410936,129.319567 420.084679,129.99331 420.084679,130.824176 C420.084679,131.655042 419.410936,132.330042 418.58007,132.330042 C417.749204,132.330042 417.075461,131.655042 417.075461,130.824176 C417.075461,129.99331 417.749204,129.319567 418.58007,129.319567" id="Fill-49" fill="#C2C9E9"></path>
                            <path d="M424.067053,129.319567 C424.897919,129.319567 425.571662,129.99331 425.571662,130.824176 C425.571662,131.655042 424.897919,132.330042 424.067053,132.330042 C423.236187,132.330042 422.562444,131.655042 422.562444,130.824176 C422.562444,129.99331 423.236187,129.319567 424.067053,129.319567" id="Fill-51" fill="#C2C9E9"></path>
                            <path d="M429.554162,129.319567 C430.385028,129.319567 431.058771,129.99331 431.058771,130.824176 C431.058771,131.655042 430.385028,132.330042 429.554162,132.330042 C428.723296,132.330042 428.049553,131.655042 428.049553,130.824176 C428.049553,129.99331 428.723296,129.319567 429.554162,129.319567" id="Fill-53" fill="#C2C9E9"></path>
                            <path d="M370.229204,141.310056 C370.229204,144.447486 367.686327,146.99162 364.54764,146.99162 C361.410209,146.99162 358.867332,144.447486 358.867332,141.310056 C358.867332,138.172626 361.410209,135.628492 364.54764,135.628492 C367.686327,135.628492 370.229204,138.172626 370.229204,141.310056" id="Fill-55" fill="#A4B5E9"></path>
                            <path d="M428.243128,144.777821 L376.881536,144.777821 C376.418966,144.777821 376.043128,144.401983 376.043128,143.939413 L376.043128,138.492905 C376.043128,138.030335 376.418966,137.654497 376.881536,137.654497 L428.243128,137.654497 C428.705698,137.654497 429.081536,138.030335 429.081536,138.492905 L429.081536,143.939413 C429.081536,144.401983 428.705698,144.777821 428.243128,144.777821" id="Fill-57" fill="#E0E9F8"></path>
                            <path d="M452.513715,25.7719274 L452.513715,10.6881285 C452.513715,5.13477654 448.012458,0.63226257 442.457849,0.63226257 L10.0556145,0.63226257 C4.50226257,0.63226257 -0.000251396648,5.13477654 -0.000251396648,10.6881285 L-0.000251396648,25.7719274 L452.513715,25.7719274 Z" id="Fill-59" fill="#6BA5C6"></path>
                        </g>
                        <polygon id="Fill-62" fill="url(#linearGradient-18)" points="87.9888268 214.059218 540.502793 214.059218 540.502793 162.522905 87.9888268 162.522905"></polygon>
                        <g id="Group-168" transform="translate(43.994413, 134.865503)">
                            <path d="M459.427123,21.372486 L83.7575698,21.372486 C80.9796369,21.372486 78.7296369,19.1212291 78.7296369,16.3445531 L78.7296369,5.81731844 C78.7296369,3.04064246 80.9796369,0.789385475 83.7575698,0.789385475 L459.427123,0.789385475 C462.203799,0.789385475 464.455056,3.04064246 464.455056,5.81731844 L464.455056,16.3445531 C464.455056,19.1212291 462.203799,21.372486 459.427123,21.372486" id="Fill-64" fill="#FFFFFF"></path>
                            <path d="M488.816397,4.79601955 L472.416536,4.79601955" id="Stroke-66" stroke="#8DAEE6" stroke-width="1.5" stroke-linecap="round" stroke-linejoin="round"></path>
                            <path d="M488.816397,11.0809358 L472.416536,11.0809358" id="Stroke-68" stroke="#8DAEE6" stroke-width="1.5" stroke-linecap="round" stroke-linejoin="round"></path>
                            <path d="M488.816397,17.365852 L472.416536,17.365852" id="Stroke-70" stroke="#8DAEE6" stroke-width="1.5" stroke-linecap="round" stroke-linejoin="round"></path>
                            <path d="M60.2440642,2.94800279 L52.8090084,8.43222067 C52.5261872,8.73641061 52.3690642,9.13613128 52.3690642,9.54967877 L52.3690642,18.6012151 C52.3690642,19.1945112 52.8504888,19.6759358 53.4437849,19.6759358 L57.8143156,19.6759358 C58.4076117,19.6759358 58.8890363,19.1945112 58.8890363,18.6012151 L58.8890363,12.8593156 C58.8890363,11.6237011 59.7287011,10.4584777 60.9504888,10.285014 C62.438757,10.0763547 63.714595,11.2252374 63.714595,12.6732821 L63.714595,18.6012151 C63.714595,19.1945112 64.1960196,19.6759358 64.7880587,19.6759358 L69.1598464,19.6759358 C69.7518855,19.6759358 70.2333101,19.1945112 70.2333101,18.6012151 L70.2333101,9.54967877 C70.2333101,9.13613128 70.0761872,8.73641061 69.7946229,8.43222067 L62.359567,2.94800279 C61.7888966,2.33333799 60.8147346,2.33333799 60.2440642,2.94800279 Z" id="Stroke-72" stroke="#8DAEE6" stroke-width="1.5" stroke-linecap="round" stroke-linejoin="round"></path>
                            <path d="M94.3360894,10.6868715 C94.3360894,13.4773743 92.0735196,15.7399441 89.2830168,15.7399441 C86.4937709,15.7399441 84.2312011,13.4773743 84.2312011,10.6868715 C84.2312011,7.89636872 86.4937709,5.63379888 89.2830168,5.63379888 C92.0735196,5.63379888 94.3360894,7.89636872 94.3360894,10.6868715 Z" id="Stroke-74" stroke="#E0E9F8" stroke-width="1.5" stroke-linecap="round" stroke-linejoin="round"></path>
                            <path d="M94.1973184,16.5287011 L92.5117039,14.5728352" id="Stroke-76" stroke="#E0E9F8" stroke-width="1.5" stroke-linecap="round" stroke-linejoin="round"></path>
                            <path d="M382.436899,63.4814246 L158.065391,63.4814246 C156.504218,63.4814246 155.237179,62.2156425 155.237179,60.6532123 L155.237179,46.197905 C155.237179,44.6367318 156.504218,43.3696927 158.065391,43.3696927 L382.436899,43.3696927 C383.99933,43.3696927 385.265112,44.6367318 385.265112,46.197905 L385.265112,60.6532123 C385.265112,62.2156425 383.99933,63.4814246 382.436899,63.4814246" id="Fill-78" fill="#FFFFFF"></path>
                            <path d="M382.436899,43.3696927 L363.267905,43.3696927 L363.267905,63.4814246 L382.436899,63.4814246 C383.99933,63.4814246 385.265112,62.2156425 385.265112,60.6532123 L385.265112,46.197905 C385.265112,44.6367318 383.99933,43.3696927 382.436899,43.3696927" id="Fill-80" fill="#E0E9F8"></path>
                            <path d="M378.587388,53.0885615 C378.587388,55.4743156 376.652891,57.4100698 374.26588,57.4100698 C371.880126,57.4100698 369.945628,55.4743156 369.945628,53.0885615 C369.945628,50.7028073 371.880126,48.7670531 374.26588,48.7670531 C376.652891,48.7670531 378.587388,50.7028073 378.587388,53.0885615 Z" id="Stroke-82" stroke="#C2C9E9" stroke-width="1.5" stroke-linecap="round" stroke-linejoin="round"></path>
                            <path d="M378.468352,58.0839385 L377.027849,56.4108939" id="Stroke-84" stroke="#C2C9E9" stroke-width="1.5" stroke-linecap="round" stroke-linejoin="round"></path>
                            <path d="M70.2336872,99.3999721 C70.2336872,102.537402 67.6908101,105.081536 64.5521229,105.081536 C61.4146927,105.081536 58.8718156,102.537402 58.8718156,99.3999721 C58.8718156,96.2625419 61.4146927,93.7184078 64.5521229,93.7184078 C67.6908101,93.7184078 70.2336872,96.2625419 70.2336872,99.3999721" id="Fill-86" fill="#7736F6"></path>
                            <path d="M477.159888,261.045 L398.778184,261.045 C396.868827,261.045 395.32148,259.498911 395.32148,257.588296 L395.32148,163.109665 C395.32148,161.200307 396.868827,159.652961 398.778184,159.652961 L477.159888,159.652961 C479.069246,159.652961 480.616592,161.200307 480.616592,163.109665 L480.616592,257.588296 C480.616592,259.498911 479.069246,261.045 477.159888,261.045" id="Fill-88" fill="#FFFFFF"></path>
                            <path d="M121.718464,102.867737 L76.8856425,102.867737 C76.4230726,102.867737 76.0472346,102.491899 76.0472346,102.02933 L76.0472346,96.5828212 C76.0472346,96.1189944 76.4230726,95.7444134 76.8856425,95.7444134 L121.718464,95.7444134 C122.181034,95.7444134 122.555615,96.1189944 122.555615,96.5828212 L122.555615,102.02933 C122.555615,102.491899 122.181034,102.867737 121.718464,102.867737" id="Fill-90" fill="#A4B5E9"></path>
                            <path d="M167.492765,14.6425978 L106.529078,14.6425978 C106.066508,14.6425978 105.691927,14.2680168 105.691927,13.8041899 L105.691927,8.35768156 C105.691927,7.89511173 106.066508,7.51927374 106.529078,7.51927374 L167.492765,7.51927374 C167.955335,7.51927374 168.331173,7.89511173 168.331173,8.35768156 L168.331173,13.8041899 C168.331173,14.2680168 167.955335,14.6425978 167.492765,14.6425978" id="Fill-92" fill="#E0E9F8"></path>
                            <path d="M70.2336872,116.055 C70.2336872,119.19243 67.6908101,121.736564 64.5521229,121.736564 C61.4146927,121.736564 58.8718156,119.19243 58.8718156,116.055 C58.8718156,112.91757 61.4146927,110.373436 64.5521229,110.373436 C67.6908101,110.373436 70.2336872,112.91757 70.2336872,116.055" id="Fill-94" fill="#A4B5E9"></path>
                            <path d="M121.718464,119.522765 L76.8856425,119.522765 C76.4230726,119.522765 76.0472346,119.146927 76.0472346,118.684358 L76.0472346,113.237849 C76.0472346,112.774022 76.4230726,112.399441 76.8856425,112.399441 L121.718464,112.399441 C122.181034,112.399441 122.555615,112.774022 122.555615,113.237849 L122.555615,118.684358 C122.555615,119.146927 122.181034,119.522765 121.718464,119.522765" id="Fill-96" fill="#A4B5E9"></path>
                            <path d="M89.8753073,136.177793 L59.7102235,136.177793 C59.2476536,136.177793 58.8718156,135.801955 58.8718156,135.339385 L58.8718156,133.453911 C58.8718156,132.991341 59.2476536,132.615503 59.7102235,132.615503 L89.8753073,132.615503 C90.3378771,132.615503 90.7137151,132.991341 90.7137151,133.453911 L90.7137151,135.339385 C90.7137151,135.801955 90.3378771,136.177793 89.8753073,136.177793" id="Fill-98" fill="#F577B6"></path>
                            <path d="M70.2336872,149.365056 C70.2336872,152.502486 67.6908101,155.04662 64.5521229,155.04662 C61.4146927,155.04662 58.8718156,152.502486 58.8718156,149.365056 C58.8718156,146.227626 61.4146927,143.683492 64.5521229,143.683492 C67.6908101,143.683492 70.2336872,146.227626 70.2336872,149.365056" id="Fill-100" fill="#FFFFFF"></path>
                            <path d="M121.718464,152.832821 L76.8856425,152.832821 C76.4230726,152.832821 76.0472346,152.456983 76.0472346,151.994413 L76.0472346,146.547905 C76.0472346,146.084078 76.4230726,145.709497 76.8856425,145.709497 L121.718464,145.709497 C122.181034,145.709497 122.555615,146.084078 122.555615,146.547905 L122.555615,151.994413 C122.555615,152.456983 122.181034,152.832821 121.718464,152.832821" id="Fill-102" fill="#A4B5E9"></path>
                            <path d="M70.2336872,166.020084 C70.2336872,169.157514 67.6908101,171.701648 64.5521229,171.701648 C61.4146927,171.701648 58.8718156,169.157514 58.8718156,166.020084 C58.8718156,162.882654 61.4146927,160.33852 64.5521229,160.33852 C67.6908101,160.33852 70.2336872,162.882654 70.2336872,166.020084" id="Fill-104" fill="#A4B5E9"></path>
                            <path d="M121.718464,169.487849 L76.8856425,169.487849 C76.4230726,169.487849 76.0472346,169.112011 76.0472346,168.649441 L76.0472346,163.202933 C76.0472346,162.739106 76.4230726,162.364525 76.8856425,162.364525 L121.718464,162.364525 C122.181034,162.364525 122.555615,162.739106 122.555615,163.202933 L122.555615,168.649441 C122.555615,169.112011 122.181034,169.487849 121.718464,169.487849" id="Fill-106" fill="#A4B5E9"></path>
                            <path d="M70.2336872,182.675112 C70.2336872,185.812542 67.6908101,188.356676 64.5521229,188.356676 C61.4146927,188.356676 58.8718156,185.812542 58.8718156,182.675112 C58.8718156,179.537682 61.4146927,176.993547 64.5521229,176.993547 C67.6908101,176.993547 70.2336872,179.537682 70.2336872,182.675112" id="Fill-108" fill="#A4B5E9"></path>
                            <path d="M121.718464,186.142877 L76.8856425,186.142877 C76.4230726,186.142877 76.0472346,185.767039 76.0472346,185.304469 L76.0472346,179.857961 C76.0472346,179.394134 76.4230726,179.019553 76.8856425,179.019553 L121.718464,179.019553 C122.181034,179.019553 122.555615,179.394134 122.555615,179.857961 L122.555615,185.304469 C122.555615,185.767039 122.181034,186.142877 121.718464,186.142877" id="Fill-110" fill="#A4B5E9"></path>
                            <path d="M70.2336872,199.33014 C70.2336872,202.46757 67.6908101,205.011704 64.5521229,205.011704 C61.4146927,205.011704 58.8718156,202.46757 58.8718156,199.33014 C58.8718156,196.192709 61.4146927,193.648575 64.5521229,193.648575 C67.6908101,193.648575 70.2336872,196.192709 70.2336872,199.33014" id="Fill-112" fill="#FFFFFF"></path>
                            <path d="M121.718464,202.797905 L76.8856425,202.797905 C76.4230726,202.797905 76.0472346,202.422067 76.0472346,201.959497 L76.0472346,196.512989 C76.0472346,196.049162 76.4230726,195.674581 76.8856425,195.674581 L121.718464,195.674581 C122.181034,195.674581 122.555615,196.049162 122.555615,196.512989 L122.555615,201.959497 C122.555615,202.422067 122.181034,202.797905 121.718464,202.797905" id="Fill-114" fill="#A4B5E9"></path>
                            <path d="M89.8753073,219.452933 L59.7102235,219.452933 C59.2476536,219.452933 58.8718156,219.077095 58.8718156,218.614525 L58.8718156,216.72905 C58.8718156,216.26648 59.2476536,215.890642 59.7102235,215.890642 L89.8753073,215.890642 C90.3378771,215.890642 90.7137151,216.26648 90.7137151,216.72905 L90.7137151,218.614525 C90.7137151,219.077095 90.3378771,219.452933 89.8753073,219.452933" id="Fill-116" fill="#F577B6"></path>
                            <path d="M70.2336872,232.640196 C70.2336872,235.777626 67.6908101,238.32176 64.5521229,238.32176 C61.4146927,238.32176 58.8718156,235.777626 58.8718156,232.640196 C58.8718156,229.502765 61.4146927,226.958631 64.5521229,226.958631 C67.6908101,226.958631 70.2336872,229.502765 70.2336872,232.640196" id="Fill-118" fill="#A4B5E9"></path>
                            <path d="M121.718464,236.107961 L76.8856425,236.107961 C76.4230726,236.107961 76.0472346,235.732123 76.0472346,235.269553 L76.0472346,229.823045 C76.0472346,229.359218 76.4230726,228.984637 76.8856425,228.984637 L121.718464,228.984637 C122.181034,228.984637 122.555615,229.359218 122.555615,229.823045 L122.555615,235.269553 C122.555615,235.732123 122.181034,236.107961 121.718464,236.107961" id="Fill-120" fill="#A4B5E9"></path>
                            <path d="M70.2336872,249.295223 C70.2336872,252.432654 67.6908101,254.976788 64.5521229,254.976788 C61.4146927,254.976788 58.8718156,252.432654 58.8718156,249.295223 C58.8718156,246.157793 61.4146927,243.613659 64.5521229,243.613659 C67.6908101,243.613659 70.2336872,246.157793 70.2336872,249.295223" id="Fill-122" fill="#FFFFFF"></path>
                            <path d="M121.718464,252.762989 L76.8856425,252.762989 C76.4230726,252.762989 76.0472346,252.387151 76.0472346,251.924581 L76.0472346,246.478073 C76.0472346,246.014246 76.4230726,245.639665 76.8856425,245.639665 L121.718464,245.639665 C122.181034,245.639665 122.555615,246.014246 122.555615,246.478073 L122.555615,251.924581 C122.555615,252.387151 122.181034,252.762989 121.718464,252.762989" id="Fill-124" fill="#A4B5E9"></path>
                            <path d="M383.693883,171.581983 L140.467626,171.581983 C138.558268,171.581983 137.010922,170.034637 137.010922,168.125279 L137.010922,95.2202514 C137.010922,93.3108939 138.558268,91.7635475 140.467626,91.7635475 L383.693883,91.7635475 C385.60324,91.7635475 387.150587,93.3108939 387.150587,95.2202514 L387.150587,168.125279 C387.150587,170.034637 385.60324,171.581983 383.693883,171.581983" id="Fill-126" fill="#FFFFFF"></path>
                            <path d="M206.564832,106.428771 L145.601145,106.428771 C145.137318,106.428771 144.762737,106.052933 144.762737,105.590363 L144.762737,100.143855 C144.762737,99.6812849 145.137318,99.3054469 145.601145,99.3054469 L206.564832,99.3054469 C207.027402,99.3054469 207.401983,99.6812849 207.401983,100.143855 L207.401983,105.590363 C207.401983,106.052933 207.027402,106.428771 206.564832,106.428771" id="Fill-128" fill="#E0E9F8"></path>
                            <path d="M377.486271,163.900056 L145.600517,163.900056 C145.13669,163.900056 144.762109,163.524218 144.762109,163.061648 L144.762109,157.61514 C144.762109,157.15257 145.13669,156.776732 145.600517,156.776732 L377.486271,156.776732 C377.948841,156.776732 378.324679,157.15257 378.324679,157.61514 L378.324679,163.061648 C378.324679,163.524218 377.948841,163.900056 377.486271,163.900056" id="Fill-130" fill="#E0E9F8"></path>
                            <path d="M276.955894,106.428771 L215.992207,106.428771 C215.52838,106.428771 215.153799,106.052933 215.153799,105.590363 L215.153799,100.143855 C215.153799,99.6812849 215.52838,99.3054469 215.992207,99.3054469 L276.955894,99.3054469 C277.418464,99.3054469 277.793045,99.6812849 277.793045,100.143855 L277.793045,105.590363 C277.793045,106.052933 277.418464,106.428771 276.955894,106.428771" id="Fill-132" fill="#E0E9F8"></path>
                            <path d="M347.346955,106.428771 L286.383268,106.428771 C285.919441,106.428771 285.54486,106.052933 285.54486,105.590363 L285.54486,100.143855 C285.54486,99.6812849 285.919441,99.3054469 286.383268,99.3054469 L347.346955,99.3054469 C347.809525,99.3054469 348.184106,99.6812849 348.184106,100.143855 L348.184106,105.590363 C348.184106,106.052933 347.809525,106.428771 347.346955,106.428771" id="Fill-134" fill="#E0E9F8"></path>
                            <path d="M346.561341,145.709497 L146.38676,145.709497 C145.489274,145.709497 144.762737,144.982961 144.762737,144.085475 L144.762737,121.982682 C144.762737,121.086453 145.489274,120.359916 146.38676,120.359916 L346.561341,120.359916 C347.45757,120.359916 348.184106,121.086453 348.184106,121.982682 L348.184106,144.085475 C348.184106,144.982961 347.45757,145.709497 346.561341,145.709497" id="Fill-136" fill="#CEDFE7"></path>
                            <path d="M383.693883,261.045 L140.467626,261.045 C138.558268,261.045 137.010922,259.498911 137.010922,257.588296 L137.010922,184.683268 C137.010922,182.773911 138.558268,181.226564 140.467626,181.226564 L383.693883,181.226564 C385.60324,181.226564 387.150587,182.773911 387.150587,184.683268 L387.150587,257.588296 C387.150587,259.498911 385.60324,261.045 383.693883,261.045" id="Fill-138" fill="#FFFFFF"></path>
                            <path d="M206.564832,195.891788 L145.601145,195.891788 C145.137318,195.891788 144.762737,195.51595 144.762737,195.05338 L144.762737,189.606872 C144.762737,189.144302 145.137318,188.768464 145.601145,188.768464 L206.564832,188.768464 C207.027402,188.768464 207.401983,189.144302 207.401983,189.606872 L207.401983,195.05338 C207.401983,195.51595 207.027402,195.891788 206.564832,195.891788" id="Fill-140" fill="#E0E9F8"></path>
                            <path d="M377.486271,253.363198 L145.600517,253.363198 C145.13669,253.363198 144.762109,252.988617 144.762109,252.526047 L144.762109,247.078282 C144.762109,246.615712 145.13669,246.241131 145.600517,246.241131 L377.486271,246.241131 C377.948841,246.241131 378.324679,246.615712 378.324679,247.078282 L378.324679,252.526047 C378.324679,252.988617 377.948841,253.363198 377.486271,253.363198" id="Fill-142" fill="#E0E9F8"></path>
                            <path d="M276.955894,195.891788 L215.992207,195.891788 C215.52838,195.891788 215.153799,195.51595 215.153799,195.05338 L215.153799,189.606872 C215.153799,189.144302 215.52838,188.768464 215.992207,188.768464 L276.955894,188.768464 C277.418464,188.768464 277.793045,189.144302 277.793045,189.606872 L277.793045,195.05338 C277.793045,195.51595 277.418464,195.891788 276.955894,195.891788" id="Fill-144" fill="#E0E9F8"></path>
                            <path d="M347.346955,195.891788 L286.383268,195.891788 C285.919441,195.891788 285.54486,195.51595 285.54486,195.05338 L285.54486,189.606872 C285.54486,189.144302 285.919441,188.768464 286.383268,188.768464 L347.346955,188.768464 C347.809525,188.768464 348.184106,189.144302 348.184106,189.606872 L348.184106,195.05338 C348.184106,195.51595 347.809525,195.891788 347.346955,195.891788" id="Fill-146" fill="#E0E9F8"></path>
                            <path d="M346.561341,235.172514 L146.38676,235.172514 C145.489274,235.172514 144.762737,234.445978 144.762737,233.548492 L144.762737,211.445698 C144.762737,210.549469 145.489274,209.822933 146.38676,209.822933 L346.561341,209.822933 C347.45757,209.822933 348.184106,210.549469 348.184106,211.445698 L348.184106,233.548492 C348.184106,234.445978 347.45757,235.172514 346.561341,235.172514" id="Fill-148" fill="#CEDFE7"></path>
                            <path d="M455.222891,169.487849 L473.271913,169.487849 C474.256131,169.487849 475.053059,168.689665 475.053059,167.706704 C475.053059,166.723743 474.256131,165.925559 473.271913,165.925559 L455.222891,165.925559 C454.23993,165.925559 453.441746,166.723743 453.441746,167.706704 C453.441746,168.689665 454.23993,169.487849 455.222891,169.487849" id="Fill-150" fill="#E0E9F8"></path>
                            <path d="M417.488757,184.162877 C417.488757,187.300307 414.94588,189.844441 411.807193,189.844441 C408.669763,189.844441 406.126885,187.300307 406.126885,184.162877 C406.126885,181.025447 408.669763,178.480056 411.807193,178.480056 C414.94588,178.480056 417.488757,181.025447 417.488757,184.162877" id="Fill-152" fill="#7736F6"></path>
                            <path d="M468.972277,187.629385 L424.140712,187.629385 C423.678142,187.629385 423.302304,187.254804 423.302304,186.792235 L423.302304,181.344469 C423.302304,180.881899 423.678142,180.507318 424.140712,180.507318 L468.972277,180.507318 C469.434846,180.507318 469.810684,180.881899 469.810684,181.344469 L469.810684,186.792235 C469.810684,187.254804 469.434846,187.629385 468.972277,187.629385" id="Fill-154" fill="#E0E9F8"></path>
                            <path d="M468.972277,204.284413 L406.965293,204.284413 C406.502723,204.284413 406.126885,203.909832 406.126885,203.447263 L406.126885,197.999497 C406.126885,197.536927 406.502723,197.162346 406.965293,197.162346 L468.972277,197.162346 C469.434846,197.162346 469.810684,197.536927 469.810684,197.999497 L469.810684,203.447263 C469.810684,203.909832 469.434846,204.284413 468.972277,204.284413" id="Fill-156" fill="#A4B5E9"></path>
                            <path d="M417.488757,228.886341 C417.488757,232.023771 414.94588,234.567905 411.807193,234.567905 C408.669763,234.567905 406.126885,232.023771 406.126885,228.886341 C406.126885,225.748911 408.669763,223.204777 411.807193,223.204777 C414.94588,223.204777 417.488757,225.748911 417.488757,228.886341" id="Fill-158" fill="#7736F6"></path>
                            <path d="M468.972277,232.354106 L424.140712,232.354106 C423.678142,232.354106 423.302304,231.978268 423.302304,231.515698 L423.302304,226.06919 C423.302304,225.60662 423.678142,225.230782 424.140712,225.230782 L468.972277,225.230782 C469.434846,225.230782 469.810684,225.60662 469.810684,226.06919 L469.810684,231.515698 C469.810684,231.978268 469.434846,232.354106 468.972277,232.354106" id="Fill-160" fill="#E0E9F8"></path>
                            <path d="M468.972277,249.009134 L406.965293,249.009134 C406.502723,249.009134 406.126885,248.633296 406.126885,248.170726 L406.126885,242.724218 C406.126885,242.261648 406.502723,241.88581 406.965293,241.88581 L468.972277,241.88581 C469.434846,241.88581 469.810684,242.261648 469.810684,242.724218 L469.810684,248.170726 C469.810684,248.633296 469.434846,249.009134 468.972277,249.009134" id="Fill-162" fill="#A4B5E9"></path>
                            <path d="M453.27595,5.12924581 L454.522877,7.65452514 C454.81324,8.24153631 455.371341,8.6475419 456.019944,8.74181564 L458.805419,9.14656425 C459.295642,9.21821229 459.491732,9.82030726 459.137263,10.1647207 L457.121061,12.1318994 C456.652207,12.5881844 456.43852,13.2468436 456.549134,13.890419 L457.024274,16.667095 C457.108492,17.1548045 456.596899,17.5268715 456.158212,17.2968436 L453.665615,15.9858101 C453.087402,15.6816201 452.394804,15.6816201 451.816592,15.9858101 L449.322737,17.2968436 C448.885307,17.5268715 448.373715,17.1548045 448.456676,16.667095 L448.933073,13.890419 C449.043687,13.2468436 448.83,12.5881844 448.361145,12.1318994 L446.343687,10.1647207 C445.989218,9.82030726 446.185307,9.21821229 446.675531,9.14656425 L449.462263,8.74181564 C450.109609,8.6475419 450.668966,8.24153631 450.958073,7.65452514 L452.205,5.12924581 C452.423715,4.68553073 453.057235,4.68553073 453.27595,5.12924581" id="Fill-164" fill="#CEDFE7"></path>
                            <path d="M491.691369,291.616466 L5.44625698,291.616466 C2.78522346,291.616466 0.628240223,289.46074 0.628240223,286.799707 C0.628240223,284.13993 2.78522346,281.982947 5.44625698,281.982947 L491.691369,281.982947 C494.351145,281.982947 496.508128,284.13993 496.508128,286.799707 C496.508128,289.46074 494.351145,291.616466 491.691369,291.616466" id="Fill-166" fill="#CFDDF4"></path>
                        </g>
                        <g id="Group-171" transform="translate(248.882682, 427.742598)">
                            <mask id="mask-20" fill="white">
                                <use xlink:href="#path-19"></use>
                            </mask>
                            <g id="Clip-170"></g>
                            <path d="M22.1417598,0.804469274 C20.1356145,0.804469274 18.1445531,1.19664804 17.6857542,1.69064246 L17.6857542,1.69064246 L1.00055866,19.6403631 C0.123184358,20.5831006 1.71326816,21.3687151 4.57541899,21.3687151 L4.57541899,21.3687151 L51.9586592,21.3687151 C53.2709497,19.5146648 54.8170391,17.7850559 56.2977654,16.1585196 L56.2977654,16.1585196 C57.1826816,15.1856145 58.1379888,14.2805866 59.0392458,13.3265363 L59.0392458,13.3265363 C59.2089385,13.1518156 59.3648045,12.9657821 59.5307263,12.7872905 L59.5307263,12.7872905 C61.1384078,9.74790503 64.0722067,6.6896648 66.1537709,4.19958101 L66.1537709,4.19958101 C67.197067,2.9551676 68.3509777,1.8527933 69.5539106,0.804469274 L69.5539106,0.804469274 L22.1417598,0.804469274 Z" id="Fill-169" fill="url(#linearGradient-21)" mask="url(#mask-20)"></path>
                        </g>
                        <g id="Group-179" transform="translate(262.709497, 431.513547)">
                            <path d="M42.470824,12.3869413 C43.3557402,11.4152933 44.3110475,10.5102654 45.2135615,9.5549581 C45.3819972,9.38023743 45.5378631,9.19420391 45.7037849,9.01571229 C46.2417737,8.00006983 46.9343715,6.98317039 47.6860475,5.98386872 L7.77180168,5.98386872 C6.33255587,5.98386872 4.90713687,6.31822626 4.5828352,6.73554469 L0.198477654,12.3894553 C-0.196215084,12.8985335 0.794287709,13.3183659 2.41705307,13.3183659 L41.6273883,13.3183659 C41.9102095,13.0053771 42.1905168,12.6936453 42.470824,12.3869413" id="Fill-172" fill="#E0E9F8"></path>
                            <g id="Group-178" transform="translate(7.541899, 0.000000)">
                                <path d="M14.3850419,2.07829609 C13.8772207,3.06125698 10.399148,3.88458101 6.63448324,3.88458101 C2.87107542,3.88458101 0.448868715,3.06125698 1.20180168,2.07829609 C1.92708101,1.13053073 5.35361732,0.386396648 8.87819832,0.386396648 C12.4040363,0.386396648 14.8765223,1.13053073 14.3850419,2.07829609" id="Fill-174" fill="#A4B5E9"></path>
                                <path d="M44.3194693,0.977178771 L22.513324,0.977178771 C21.987905,0.977178771 21.5177933,1.0877933 21.463743,1.22480447 L20.8101117,2.89910615 C20.7522905,3.04617318 21.1494972,3.16558659 21.6987989,3.16558659 L42.4339944,3.16558659 C43.0876257,2.40511173 43.7249162,1.67354749 44.3194693,0.977178771" id="Fill-176" fill="#E0E9F8"></path>
                            </g>
                        </g>
                        <g id="Group-182" transform="translate(295.391061, 427.742598)">
                            <mask id="mask-23" fill="white">
                                <use xlink:href="#path-22"></use>
                            </mask>
                            <g id="Clip-181"></g>
                            <path d="M22.3755587,0.804469274 C20.3694134,0.804469274 18.378352,1.19664804 17.9195531,1.69064246 L17.9195531,1.69064246 L1.23435754,19.6403631 C0.35698324,20.5831006 1.94706704,21.3687151 4.80796089,21.3687151 L4.80796089,21.3687151 L122.270531,21.3687151 C125.131425,21.3687151 126.720251,20.5831006 125.844134,19.6403631 L125.844134,19.6403631 L109.158939,1.69064246 C108.698883,1.19664804 106.707821,0.804469274 104.70419,0.804469274 L104.70419,0.804469274 L22.3755587,0.804469274 Z" id="Fill-180" fill="url(#linearGradient-24)" mask="url(#mask-23)"></path>
                        </g>
                        <g id="Group-215" transform="translate(309.217877, 427.742598)">
                            <g id="Group-197" transform="translate(0.000000, 1.256983)">
                                <path d="M96.7738827,15.8325838 L2.64972067,15.8325838 C1.02695531,15.8325838 0.036452514,15.4127514 0.431145251,14.9036732 L4.81675978,9.24976257 C5.14106145,8.83244413 6.56522346,8.49808659 8.00446927,8.49808659 L91.4191341,8.49808659 C92.8583799,8.49808659 94.2850559,8.83244413 94.6068436,9.24976257 L98.9924581,14.9036732 C99.3884078,15.4127514 98.397905,15.8325838 96.7738827,15.8325838" id="Fill-183" fill="#E0E9F8"></path>
                                <g id="Group-191" transform="translate(74.162011, 0.000000)" fill="#C2C9E9">
                                    <path d="M2.2497486,1.14284916 C3.15226257,1.14284916 3.98689944,1.32511173 4.11511173,1.55136872 C4.24583799,1.78013966 3.60854749,1.96617318 2.6922067,1.96617318 C1.77460894,1.96617318 0.937458101,1.78013966 0.823072626,1.55136872 C0.708687151,1.32511173 1.34849162,1.14284916 2.2497486,1.14284916" id="Fill-185"></path>
                                    <path d="M8.20445531,1.14284916 C9.10696927,1.14284916 9.96297486,1.32511173 10.1188408,1.55136872 C10.2759637,1.78013966 9.66129888,1.96617318 8.7449581,1.96617318 C7.82736034,1.96617318 6.96884078,1.78013966 6.82554469,1.55136872 C6.68476257,1.32511173 7.30319832,1.14284916 8.20445531,1.14284916" id="Fill-187"></path>
                                    <path d="M14.159162,1.14284916 C15.061676,1.14284916 15.9390503,1.32511173 16.1225698,1.55136872 C16.3073464,1.78013966 15.7140503,1.96617318 14.7977095,1.96617318 C13.8801117,1.96617318 12.9989665,1.78013966 12.8292737,1.55136872 C12.662095,1.32511173 13.256648,1.14284916 14.159162,1.14284916" id="Fill-189"></path>
                                </g>
                                <g id="Group-196" transform="translate(8.798883, 2.513966)">
                                    <path d="M13.3613547,2.07829609 C12.8535335,3.06125698 9.37546089,3.88458101 5.61079609,3.88458101 C1.84738827,3.88458101 -0.574818436,3.06125698 0.178114525,2.07829609 C0.903393855,1.13053073 4.32867318,0.386396648 7.85451117,0.386396648 C11.3803492,0.386396648 13.8528352,1.13053073 13.3613547,2.07829609" id="Fill-192" fill="#A4B5E9"></path>
                                    <path d="M81.4888408,3.16583799 L20.6734777,3.16583799 C20.1266899,3.16583799 19.7282263,3.04642458 19.7860475,2.89935754 L20.4409358,1.22505587 C20.494986,1.08804469 20.9638408,0.977430168 21.4905168,0.977430168 L79.8535056,0.977430168 C80.3801816,0.977430168 80.8905168,1.08804469 80.9961034,1.22505587 L82.2769693,2.89935754 C82.3900978,3.04642458 82.0381425,3.16583799 81.4888408,3.16583799" id="Fill-194" fill="#E0E9F8"></path>
                                </g>
                            </g>
                            <path d="M165.108897,21.3687151 L47.6450698,21.3687151 C44.784176,21.3687151 43.1953492,20.5831006 44.0727235,19.6403631 L60.756662,1.69189944 C61.2167179,1.19664804 63.2077793,0.804469274 65.2126676,0.804469274 L147.540042,0.804469274 C149.546187,0.804469274 151.537249,1.19664804 151.996047,1.69189944 L168.681243,19.6403631 C169.558617,20.5831006 167.968534,21.3687151 165.108897,21.3687151" id="Fill-198" fill="#FFFFFF"></path>
                            <g id="Group-214" transform="translate(56.564246, 1.256983)">
                                <path d="M96.874567,15.8325838 L2.75040503,15.8325838 C1.12638268,15.8325838 0.135879888,15.4127514 0.531829609,14.9036732 L4.91744413,9.24976257 C5.24048883,8.83244413 6.66590782,8.49808659 8.10515363,8.49808659 L91.5198184,8.49808659 C92.9590642,8.49808659 94.3857402,8.83244413 94.7075279,9.24976257 L99.0931425,14.9036732 C99.4878352,15.4127514 98.4973324,15.8325838 96.874567,15.8325838" id="Fill-200" fill="#E0E9F8"></path>
                                <g id="Group-208" transform="translate(74.162011, 0.000000)" fill="#C2C9E9">
                                    <path d="M2.35043296,1.14284916 C3.25294693,1.14284916 4.0875838,1.32511173 4.21579609,1.55136872 C4.34652235,1.78013966 3.70923184,1.96617318 2.79289106,1.96617318 C1.8752933,1.96617318 1.03814246,1.78013966 0.9225,1.55136872 C0.809371508,1.32511173 1.44917598,1.14284916 2.35043296,1.14284916" id="Fill-202"></path>
                                    <path d="M8.30513966,1.14284916 C9.20765363,1.14284916 10.0636592,1.32511173 10.2195251,1.55136872 C10.376648,1.78013966 9.76198324,1.96617318 8.84564246,1.96617318 C7.92804469,1.96617318 7.06952514,1.78013966 6.92622905,1.55136872 C6.78544693,1.32511173 7.4026257,1.14284916 8.30513966,1.14284916" id="Fill-204"></path>
                                    <path d="M14.2598464,1.14284916 C15.1623603,1.14284916 16.0397346,1.32511173 16.2232542,1.55136872 C16.4067737,1.78013966 15.8147346,1.96617318 14.8983939,1.96617318 C13.9807961,1.96617318 13.0996508,1.78013966 12.9287011,1.55136872 C12.7627793,1.32511173 13.3573324,1.14284916 14.2598464,1.14284916" id="Fill-206"></path>
                                </g>
                                <g id="Group-213" transform="translate(8.798883, 2.513966)">
                                    <path d="M13.4619134,2.07829609 C12.9540922,3.06125698 9.47476257,3.88458101 5.71135475,3.88458101 C1.94794693,3.88458101 -0.474259777,3.06125698 0.278673184,2.07829609 C1.00395251,1.13053073 4.42923184,0.386396648 7.95506983,0.386396648 C11.4796508,0.386396648 13.9533939,1.13053073 13.4619134,2.07829609" id="Fill-209" fill="#A4B5E9"></path>
                                    <path d="M81.5895251,3.16583799 L20.774162,3.16583799 C20.2273743,3.16583799 19.8289106,3.04642458 19.8867318,2.89935754 L20.5416201,1.22505587 C20.5956704,1.08804469 21.0645251,0.977430168 21.5912011,0.977430168 L79.9541899,0.977430168 C80.4796089,0.977430168 80.9912011,1.08804469 81.0967877,1.22505587 L82.3776536,2.89935754 C82.4907821,3.04642458 82.1388268,3.16583799 81.5895251,3.16583799" id="Fill-211" fill="#E0E9F8"></path>
                                </g>
                            </g>
                        </g>
                        <g id="Group-218" transform="translate(203.631285, 75.787291)">
                            <mask id="mask-26" fill="white">
                                <use xlink:href="#path-25"></use>
                            </mask>
                            <g id="Clip-217"></g>
                            <path d="M6.0900838,0.413547486 C3.31215084,0.413547486 1.06089385,2.66480447 1.06089385,5.44148045 L1.06089385,5.44148045 L1.06089385,15.9687151 C1.06089385,18.746648 3.31215084,20.996648 6.0900838,20.996648 L6.0900838,20.996648 L102.165084,20.996648 C104.94176,20.996648 107.193017,18.746648 107.193017,15.9687151 L107.193017,15.9687151 L107.193017,5.44148045 C107.193017,2.66480447 104.94176,0.413547486 102.165084,0.413547486 L102.165084,0.413547486 L6.0900838,0.413547486 Z" id="Fill-216" fill="url(#linearGradient-27)" mask="url(#mask-26)"></path>
                        </g>
                        <g id="Group-223" transform="translate(208.659218, 79.558240)" fill="#E0E9F8">
                            <path d="M2.47814246,6.5397067 C2.47814246,4.27336592 4.32213687,2.42937151 6.58847765,2.42937151 C8.85481844,2.42937151 10.6988128,4.27336592 10.6988128,6.5397067 C10.6988128,8.80604749 8.85481844,10.6500419 6.58847765,10.6500419 C4.32213687,10.6500419 2.47814246,8.80604749 2.47814246,6.5397067 L2.47814246,6.5397067 Z M11.0897346,10.4589804 C12.0073324,9.40437151 12.5842877,8.04431564 12.5842877,6.5397067 C12.5842877,3.23384078 9.89434358,0.543896648 6.58847765,0.543896648 C3.28261173,0.543896648 0.592667598,3.23384078 0.592667598,6.5397067 C0.592667598,9.84557263 3.28261173,12.5355168 6.58847765,12.5355168 C7.70844972,12.5355168 8.74546089,12.2074441 9.64420391,11.6707123 L10.7868017,12.9968296 C10.9740922,13.2142877 11.2368017,13.3249022 11.5020251,13.3249022 C11.7207402,13.3249022 11.9381983,13.2494832 12.1166899,13.0961313 C12.5101257,12.7567458 12.5553771,12.1621927 12.2159916,11.7675 L11.0897346,10.4589804 Z" id="Fill-219"></path>
                            <path d="M84.7982263,10.4960615 L23.8345391,10.4960615 C23.3719693,10.4960615 22.9961313,10.1214804 22.9961313,9.65765363 L22.9961313,4.21114525 C22.9961313,3.74857542 23.3719693,3.37273743 23.8345391,3.37273743 L84.7982263,3.37273743 C85.2607961,3.37273743 85.6353771,3.74857542 85.6353771,4.21114525 L85.6353771,9.65765363 C85.6353771,10.1214804 85.2607961,10.4960615 84.7982263,10.4960615" id="Fill-221"></path>
                        </g>
                        <g id="Group-226" transform="translate(186.033520, 58.189525)">
                            <mask id="mask-29" fill="white">
                                <use xlink:href="#path-28"></use>
                            </mask>
                            <g id="Clip-225"></g>
                            <path d="M5.36857542,0.402234637 C2.59189944,0.402234637 0.340642458,2.65349162 0.340642458,5.4301676 L0.340642458,5.4301676 L0.340642458,15.9574022 C0.340642458,18.7353352 2.59189944,20.9853352 5.36857542,20.9853352 L5.36857542,20.9853352 L101.444832,20.9853352 C104.221508,20.9853352 106.472765,18.7353352 106.472765,15.9574022 L106.472765,15.9574022 L106.472765,5.4301676 C106.472765,2.65349162 104.221508,0.402234637 101.444832,0.402234637 L101.444832,0.402234637 L5.36857542,0.402234637 Z" id="Fill-224" fill="url(#linearGradient-30)" mask="url(#mask-29)"></path>
                        </g>
                        <g id="Group-245" transform="translate(133.240223, 61.960475)">
                            <path d="M59.58,6.52864525 C59.58,4.26230447 61.4239944,2.41831006 63.6903352,2.41831006 C65.955419,2.41831006 67.7994134,4.26230447 67.7994134,6.52864525 C67.7994134,8.79498603 65.955419,10.6389804 63.6903352,10.6389804 C61.4239944,10.6389804 59.58,8.79498603 59.58,6.52864525 L59.58,6.52864525 Z M68.1903352,10.447919 C69.1091899,9.39331006 69.6848883,8.03325419 69.6848883,6.52864525 C69.6848883,3.22277933 66.9949441,0.532835196 63.6903352,0.532835196 C60.3844693,0.532835196 57.6945251,3.22277933 57.6945251,6.52864525 C57.6945251,9.83451117 60.3844693,12.5244553 63.6903352,12.5244553 C64.8103073,12.5244553 65.8473184,12.1963827 66.7448045,11.6583939 L67.8874022,12.9857682 C68.0746927,13.2032263 68.3386592,13.3138408 68.6038827,13.3138408 C68.8213408,13.3138408 69.0387989,13.2384218 69.2172905,13.0850698 C69.6119832,12.7456844 69.6572346,12.1498743 69.3165922,11.7564385 L68.1903352,10.447919 Z" id="Fill-227" fill="#E0E9F8"></path>
                            <path d="M141.898953,10.4843715 L80.9352654,10.4843715 C80.4726955,10.4843715 80.0968575,10.1097905 80.0968575,9.64596369 L80.0968575,4.19945531 C80.0968575,3.73688547 80.4726955,3.36104749 80.9352654,3.36104749 L141.898953,3.36104749 C142.361522,3.36104749 142.73736,3.73688547 142.73736,4.19945531 L142.73736,9.64596369 C142.73736,10.1097905 142.361522,10.4843715 141.898953,10.4843715" id="Fill-229" fill="#E0E9F8"></path>
                            <path d="M188.917919,52.6669693 L92.841662,52.6669693 C90.064986,52.6669693 87.8137291,50.4157123 87.8137291,47.6390363 L87.8137291,37.1118017 C87.8137291,34.3351257 90.064986,32.0838687 92.841662,32.0838687 L188.917919,32.0838687 C191.694595,32.0838687 193.945852,34.3351257 193.945852,37.1118017 L193.945852,47.6390363 C193.945852,50.4157123 191.694595,52.6669693 188.917919,52.6669693" id="Fill-231" fill="#FFFFFF"></path>
                            <path d="M98.3697486,37.8703911 C96.1021508,37.8703911 94.2581564,39.7143855 94.2581564,41.9807263 C94.2581564,44.247067 96.1021508,46.0910615 98.3697486,46.0910615 C100.636089,46.0910615 102.480084,44.247067 102.480084,41.9807263 C102.480084,39.7143855 100.636089,37.8703911 98.3697486,37.8703911 M98.3697486,47.9765363 C95.0626257,47.9765363 92.3726816,45.2865922 92.3726816,41.9807263 C92.3726816,38.6748603 95.0626257,35.9849162 98.3697486,35.9849162 C101.675615,35.9849162 104.365559,38.6748603 104.365559,41.9807263 C104.365559,45.2865922 101.675615,47.9765363 98.3697486,47.9765363" id="Fill-233" fill="#E0E9F8"></path>
                            <path d="M103.283547,48.7652933 C103.018324,48.7652933 102.754358,48.6546788 102.568324,48.4372207 L100.883966,46.4813547 C100.543324,46.087919 100.587318,45.4921089 100.983268,45.1514665 C101.375447,44.810824 101.971257,44.8560754 102.313156,45.2520251 L103.996257,47.2078911 C104.336899,47.6013268 104.292905,48.1971369 103.896955,48.5365223 C103.719721,48.6898743 103.501006,48.7652933 103.283547,48.7652933" id="Fill-235" fill="#E0E9F8"></path>
                            <path d="M176.578869,45.9364525 L115.615182,45.9364525 C115.152612,45.9364525 114.776774,45.5618715 114.776774,45.0980447 L114.776774,39.6515363 C114.776774,39.1889665 115.152612,38.8131285 115.615182,38.8131285 L176.578869,38.8131285 C177.041439,38.8131285 177.417277,39.1889665 177.417277,39.6515363 L177.417277,45.0980447 C177.417277,45.5618715 177.041439,45.9364525 176.578869,45.9364525" id="Fill-237" fill="#E0E9F8"></path>
                            <path d="M7.04199721,372.200908 C10.9097346,372.200908 14.0446508,375.337081 14.0446508,379.204818 C14.0446508,383.072556 10.9097346,386.208729 7.04199721,386.208729 C3.17425978,386.208729 0.0380865922,383.072556 0.0380865922,379.204818 C0.0380865922,375.337081 3.17425978,372.200908 7.04199721,372.200908" id="Fill-239" fill="#CFE4E9"></path>
                            <path d="M27.7859916,372.200908 C31.6537291,372.200908 34.7886453,375.337081 34.7886453,379.204818 C34.7886453,383.072556 31.6537291,386.208729 27.7859916,386.208729 C23.9182542,386.208729 20.782081,383.072556 20.782081,379.204818 C20.782081,375.337081 23.9182542,372.200908 27.7859916,372.200908" id="Fill-241" fill="#CFE4E9"></path>
                            <path d="M48.5298603,372.200908 C52.3975978,372.200908 55.5337709,375.337081 55.5337709,379.204818 C55.5337709,383.072556 52.3975978,386.208729 48.5298603,386.208729 C44.6621229,386.208729 41.5259497,383.072556 41.5259497,379.204818 C41.5259497,375.337081 44.6621229,372.200908 48.5298603,372.200908" id="Fill-243" fill="#CFE4E9"></path>
                        </g>
                    </g>
                </g>
            </g>
        </g>
    </g>
</svg>