<?xml version="1.0" encoding="UTF-8"?>
<svg width="116px" height="50px" viewBox="0 0 116 50" version="1.1" xmlns="http://www.w3.org/2000/svg" xmlns:xlink="http://www.w3.org/1999/xlink">
    <!-- Generator: Sketch 57.1 (83088) - https://sketch.com -->
    <title>Logo - white</title>
    <desc>Created with Sketch.</desc>
    <g id="Angular-House" stroke="none" stroke-width="1" fill="none" fill-rule="evenodd">
        <g id="Strona-główna---Desktop-1200px" transform="translate(-360.000000, -20.000000)" fill="#FFFFFF" fill-rule="nonzero">
            <g id="Top">
                <g id="Logo---white" transform="translate(360.000000, 20.000000)">
                    <path d="M1.56319402e-12,12.6926829 L1.56319402e-12,1.43414634 C1.56311286e-12,0.771404642 0.5372583,0.234146341 1.2,0.234146341 C1.8627417,0.234146341 2.4,0.771404642 2.4,1.43414634 L2.4,3.91219512 C2.4,5.01676462 3.2954305,5.91219512 4.4,5.91219512 L6.91707317,5.91219512 C8.02164267,5.91219512 8.91707317,5.01676462 8.91707317,3.91219512 L8.91707317,1.43414634 C8.91707317,0.771404642 9.45433147,0.234146341 10.1170732,0.234146341 C10.7798149,0.234146341 11.3170732,0.771404642 11.3170732,1.43414634 L11.3170732,12.6926829 C11.3170732,13.3554246 10.7798149,13.8926829 10.1170732,13.8926829 C9.45433147,13.8926829 8.91707317,13.3554246 8.91707317,12.6926829 L8.91707317,10.1365854 C8.91707317,9.03201587 8.02164267,8.13658537 6.91707317,8.13658537 L4.4,8.13658537 C3.2954305,8.13658537 2.4,9.03201587 2.4,10.1365854 L2.4,12.6926829 C2.4,13.3554246 1.8627417,13.8926829 1.2,13.8926829 C0.5372583,13.8926829 1.56460745e-12,13.3554246 1.56319402e-12,12.6926829 Z M33.0536585,14.1268293 C28.8585366,14.1268293 25.9317073,10.9463415 25.9317073,7.10243902 L25.9317073,7.06341463 C25.9317073,3.2195122 28.897561,0 33.0926829,0 C37.2878049,0 40.2146341,3.1804878 40.2146341,7.02439024 L40.2146341,7.06341463 C40.2146341,10.9073171 37.2487805,14.1268293 33.0536585,14.1268293 Z M33.0926829,11.9219512 C35.804878,11.9219512 37.697561,9.75609756 37.697561,7.10243902 L37.697561,7.06341463 C37.697561,4.4097561 35.7658537,2.20487805 33.0536585,2.20487805 C30.3414634,2.20487805 28.4487805,4.37073171 28.4487805,7.02439024 L28.4487805,7.06341463 C28.4487805,9.71707317 30.3804878,11.9219512 33.0926829,11.9219512 Z M60.4292683,14.1073171 C56.8780488,14.1073171 54.6146341,12.0585366 54.6146341,8.09756098 L54.6146341,1.43414634 C54.6146341,0.771404642 55.1518924,0.234146341 55.8146341,0.234146341 C56.4773758,0.234146341 57.0146341,0.771404642 57.0146341,1.43414634 L57.0146341,8 L57.0146341,8 C57.0146341,10.5365854 58.3219512,11.902439 60.4682927,11.902439 C62.595122,11.902439 63.902439,10.6146341 63.902439,8.09756098 L63.902439,1.43414634 C63.902439,0.771404642 64.4396973,0.234146341 65.102439,0.234146341 C65.7651807,0.234146341 66.302439,0.771404642 66.302439,1.43414634 L66.302439,7.9804878 L66.302439,7.9804878 C66.302439,12.0585366 64,14.1073171 60.4292683,14.1073171 Z M86.0878049,14.0878049 C84,14.0878049 82.0292683,13.3658537 80.3902439,11.902439 L81.8341463,10.1853659 C83.1414634,11.3170732 84.4487805,11.9609756 86.1463415,11.9609756 C87.6292683,11.9609756 88.5658537,11.2780488 88.5658537,10.2439024 L88.5658537,10.204878 C88.5658537,9.22926829 88.0195122,8.70243902 85.4829268,8.11707317 C82.5756098,7.41463415 80.9365854,6.55609756 80.9365854,4.03902439 L80.9365854,4 C80.9365854,1.65853659 82.8878049,0.0390243902 85.6,0.0390243902 C87.5902439,0.0390243902 89.1707317,0.643902439 90.5560976,1.75609756 L89.2682927,3.57073171 C88.0390244,2.65365854 86.8097561,2.16585366 85.5609756,2.16585366 C84.1560976,2.16585366 83.3365854,2.88780488 83.3365854,3.78536585 L83.3365854,3.82439024 C83.3365854,4.87804878 83.9609756,5.34634146 86.5756098,5.97073171 C89.4634146,6.67317073 90.9658537,7.70731707 90.9658537,9.97073171 L90.9658537,10.0097561 C90.9658537,12.5658537 88.9560976,14.0878049 86.0878049,14.0878049 Z M105.502439,13.8926829 L105.502439,0.234146341 L114.556098,0.234146341 C115.148793,0.234146341 115.629268,0.714621244 115.629268,1.30731707 C115.629268,1.9000129 115.148793,2.3804878 114.556098,2.3804878 L107.902439,2.3804878 L107.902439,2.3804878 L107.902439,5.93170732 L113.678049,5.93170732 C114.270745,5.93170732 114.75122,6.41218222 114.75122,7.00487805 C114.75122,7.59757388 114.270745,8.07804878 113.678049,8.07804878 L107.902439,8.07804878 L107.902439,8.07804878 L107.902439,11.7463415 L114.653659,11.7463415 C115.246354,11.7463415 115.726829,12.2268164 115.726829,12.8195122 C115.726829,13.412208 115.246354,13.8926829 114.653659,13.8926829 L105.502439,13.8926829 L105.502439,13.8926829 Z" id="HOUSE"></path>
                    <path d="M51.7658537,28.5268293 C49.6878049,28.5268293 48.2926829,26.897561 48.2926829,25.0146341 L48.2926829,24.995122 C48.2926829,23.1121951 49.7073171,21.4634146 51.7853659,21.4634146 C53.8634146,21.4634146 55.2585366,23.0926829 55.2585366,24.9756098 L55.2585366,24.995122 C55.2585366,26.8780488 53.8439024,28.5268293 51.7658537,28.5268293 Z M51.7853659,27.8146341 C53.3463415,27.8146341 54.4585366,26.5658537 54.4585366,25.0146341 L54.4585366,24.995122 C54.4585366,23.4439024 53.3268293,22.1756098 51.7658537,22.1756098 C50.204878,22.1756098 49.0926829,23.4243902 49.0926829,24.9756098 L49.0926829,24.995122 C49.0926829,26.5463415 50.2243902,27.8146341 51.7853659,27.8146341 Z M62.7414634,28.4097561 L62.7414634,21.5804878 L67.6487805,21.5804878 L67.6487805,22.2926829 L63.5121951,22.2926829 L63.5121951,24.7317073 L67.2097561,24.7317073 L67.2097561,25.4341463 L63.5121951,25.4341463 L63.5121951,28.4097561 L62.7414634,28.4097561 Z" id="OF"></path>
                    <path d="M0.478397117,48.6198818 L5.99602614,35.9902439 L5.99602614,35.9902439 L8.22041638,35.9902439 L13.7224223,48.5841211 C13.9059274,49.0041572 13.7141812,49.4934239 13.2941452,49.676929 C13.1893547,49.7227098 13.0762342,49.7463415 12.9618798,49.7463415 C12.1934537,49.7463415 11.4999762,49.2854929 11.2023454,48.5770477 L10.8230131,47.67413 C10.5111139,46.9317221 9.78439112,46.4487805 8.97912678,46.4487805 L5.17155594,46.4487805 C4.3699412,46.4487805 3.64577148,46.9274101 3.33158068,47.6648857 L2.92661513,48.6154298 C2.63443479,49.301242 1.96099639,49.7463415 1.21553833,49.7463415 C0.771270608,49.7463415 0.411120459,49.3861913 0.411120459,48.9419236 C0.411120459,48.8310878 0.434024964,48.7214479 0.478397117,48.6198818 Z M4.72773345,44.3219512 L9.43017248,44.3219512 L7.06919687,38.8585366 L4.72773345,44.3219512 Z M19.0106603,48.5658537 L19.0106603,37.2 C19.0106603,36.5857516 19.508607,36.0878049 20.1228554,36.0878049 L20.2545742,36.0878049 C20.8730632,36.0878049 21.4567568,36.3739537 21.8355625,36.8628656 L25.660072,41.7990326 C26.2064344,42.5042043 27.2210031,42.6329447 27.9261748,42.0865823 C28.3210262,41.780654 28.5521237,41.3092557 28.5521237,40.8097561 L28.5521237,37.2682927 C28.5521237,36.6163273 29.0806461,36.0878049 29.7326115,36.0878049 C30.3845769,36.0878049 30.9130993,36.6163273 30.9130993,37.2682927 L30.9130993,48.7414634 C30.9130993,49.2964422 30.4632001,49.7463415 29.9082213,49.7463415 L29.8835816,49.7463415 C29.2652274,49.7463415 28.6816453,49.4603167 28.3028283,48.9715839 L24.3480786,43.8693421 C23.7855971,43.1436535 22.741329,43.011348 22.0156404,43.5738295 C21.6093893,43.8887149 21.3716359,44.373808 21.3716359,44.8878049 L21.3716359,48.5658537 C21.3716359,49.2178191 20.8431135,49.7463415 20.1911481,49.7463415 C19.5391827,49.7463415 19.0106603,49.2178191 19.0106603,48.5658537 Z M43.3423676,49.9804878 C39.0691969,49.9804878 36.2594408,46.9365854 36.2594408,42.9560976 L36.2594408,42.9170732 C36.2594408,39.0926829 39.18627,35.8536585 43.3033432,35.8536585 C45.683831,35.8536585 47.1472456,36.5170732 48.5521237,37.7073171 L47.0301725,39.5219512 C45.9765139,38.6243902 44.9423676,38.0585366 43.2057822,38.0585366 C40.6887091,38.0585366 38.7765139,40.2634146 38.7765139,42.8780488 L38.7765139,42.9170732 C38.7765139,45.7268293 40.6301725,47.795122 43.4204164,47.795122 C44.7082213,47.795122 45.878953,47.3853659 46.7179774,46.7609756 L46.7179774,45.9512195 C46.7179774,44.9867418 45.9361137,44.204878 44.9716359,44.204878 L44.2691969,44.204878 C43.6926655,44.204878 43.2252944,43.737507 43.2252944,43.1609756 C43.2252944,42.5844442 43.6926655,42.1170732 44.2691969,42.1170732 L47.0399286,42.1170732 C48.1444981,42.1170732 49.0399286,43.0125037 49.0399286,44.1170732 L49.0399286,47.8536585 L49.0399286,47.8536585 C47.6935871,49.004878 45.7618798,49.9804878 43.3423676,49.9804878 Z M60.2009042,49.9609756 C56.6496847,49.9609756 54.38627,47.9121951 54.38627,43.9512195 L54.38627,37.2878049 C54.38627,36.6250632 54.9235283,36.0878049 55.58627,36.0878049 C56.2490117,36.0878049 56.78627,36.6250632 56.78627,37.2878049 L56.78627,43.8536585 L56.78627,43.8536585 C56.78627,46.3902439 58.0935871,47.7560976 60.2399286,47.7560976 C62.3667578,47.7560976 63.6740749,46.4682927 63.6740749,43.9512195 L63.6740749,37.2878049 C63.6740749,36.6250632 64.2113332,36.0878049 64.8740749,36.0878049 C65.5368166,36.0878049 66.0740749,36.6250632 66.0740749,37.2878049 L66.0740749,43.8341463 L66.0740749,43.8341463 C66.0740749,47.9121951 63.7716359,49.9609756 60.2009042,49.9609756 Z M71.8106603,47.7463415 L71.8106603,37.2878049 C71.8106603,36.6250632 72.3479186,36.0878049 73.0106603,36.0878049 C73.673402,36.0878049 74.2106603,36.6250632 74.2106603,37.2878049 L74.2106603,45.5609756 C74.2106603,46.6655451 75.1060908,47.5609756 76.2106603,47.5609756 L80.2984652,47.5609756 C80.9019373,47.5609756 81.3911481,48.0501864 81.3911481,48.6536585 C81.3911481,49.2571307 80.9019373,49.7463415 80.2984652,49.7463415 L73.8106603,49.7463415 C72.7060908,49.7463415 71.8106603,48.850911 71.8106603,47.7463415 Z M85.6491288,48.6198818 L90.7215,37.0094217 C90.9919577,36.3903545 91.6033854,35.9902439 92.278953,35.9902439 C92.9545205,35.9902439 93.5659482,36.3903545 93.8364059,37.0094217 L98.893154,48.5841211 C99.0766591,49.0041572 98.8849129,49.4934239 98.4648769,49.676929 C98.3600864,49.7227098 98.2469659,49.7463415 98.1326115,49.7463415 C97.3641854,49.7463415 96.6707079,49.2854929 96.3730771,48.5770477 L95.9937448,47.67413 C95.6818456,46.9317221 94.9551228,46.4487805 94.1498585,46.4487805 L90.3422876,46.4487805 C89.5406729,46.4487805 88.8165032,46.9274101 88.5023124,47.6648857 L88.0973468,48.6154298 C87.8051665,49.301242 87.1317281,49.7463415 86.38627,49.7463415 C85.9420023,49.7463415 85.5818522,49.3861913 85.5818522,48.9419236 C85.5818522,48.8310878 85.6047567,48.7214479 85.6491288,48.6198818 Z M89.8984652,44.3219512 L94.6009042,44.3219512 L92.2399286,38.8585366 L89.8984652,44.3219512 Z M104.181392,48.5463415 L104.181392,36.0878049 L104.181392,36.0878049 L110.269197,36.0878049 C111.98627,36.0878049 113.332612,36.595122 114.21066,37.4536585 C114.932612,38.195122 115.342368,39.2097561 115.342368,40.4 L115.342368,40.4390244 C115.342368,42.6829268 113.996026,44.0292683 112.083831,44.5756098 L114.950219,48.5946193 C115.183883,48.9222441 115.107714,49.377259 114.780089,49.6109235 C114.656593,49.6990013 114.508688,49.7463415 114.357002,49.7463415 L113.979497,49.7463415 C113.329195,49.7463415 112.719494,49.430172 112.344818,48.8986555 L110.183819,45.8330518 C109.809144,45.3015353 109.199442,44.9853659 108.549141,44.9853659 L108.083831,44.9853659 C107.254057,44.9853659 106.581392,45.6580307 106.581392,46.4878049 L106.581392,48.5463415 C106.581392,49.2090832 106.044134,49.7463415 105.381392,49.7463415 C104.71865,49.7463415 104.181392,49.2090832 104.181392,48.5463415 Z M106.581392,42.8585366 L110.093587,42.8585366 C111.81066,42.8585366 112.903343,41.9609756 112.903343,40.5756098 L112.903343,40.5365854 C112.903343,39.0731707 111.849685,38.2731707 110.074075,38.2731707 L106.581392,38.2731707 L106.581392,42.8585366 Z" id="ANGULAR"></path>
                </g>
            </g>
        </g>
    </g>
</svg>