<?xml version="1.0" encoding="UTF-8"?>
<svg width="22px" height="20px" viewBox="0 0 22 20" version="1.1" xmlns="http://www.w3.org/2000/svg" xmlns:xlink="http://www.w3.org/1999/xlink">
    <!-- Generator: Sketch 57.1 (83088) - https://sketch.com -->
    <title>thumb-up_blue</title>
    <desc>Created with Sketch.</desc>
    <g id="Angular-House" stroke="none" stroke-width="1" fill="none" fill-rule="evenodd">
        <g id="Baza-wiedzy---Post---Desktop-1200px" transform="translate(-717.000000, -3143.000000)" fill="#296AD0" fill-rule="nonzero">
            <g id="Content-Area" transform="translate(360.000000, 151.000000)">
                <g id="Below-content" transform="translate(0.000000, 2858.000000)">
                    <g id="Ocena" transform="translate(103.000000, 30.000000)">
                        <g id="Thumb-Up" transform="translate(245.000000, 94.000000)">
                            <g id="thumb-up_blue" transform="translate(9.000000, 10.000000)">
                                <path d="M22,9 C22,7.89 21.1,7 20,7 L13.68,7 L14.64,2.43 C14.66,2.33 14.67,2.22 14.67,2.11 C14.67,1.7 14.5,1.32 14.23,1.05 L13.17,0 L6.59,6.58 C6.22,6.95 6,7.45 6,8 L6,18 C6,19.1045695 6.8954305,20 8,20 L17,20 C17.83,20 18.54,19.5 18.84,18.78 L21.86,11.73 C21.95,11.5 22,11.26 22,11 L22,9 L22,9 Z M0,20 L4,20 L4,8 L0,8 L0,20 Z" id="Shape"></path>
                            </g>
                        </g>
                    </g>
                </g>
            </g>
        </g>
    </g>
</svg>