<?xml version="1.0" encoding="UTF-8"?>
<svg width="22px" height="20px" viewBox="0 0 22 20" version="1.1" xmlns="http://www.w3.org/2000/svg" xmlns:xlink="http://www.w3.org/1999/xlink">
    <!-- Generator: Sketch 57.1 (83088) - https://sketch.com -->
    <title>thumb-down_red</title>
    <desc>Created with Sketch.</desc>
    <g id="Angular-House" stroke="none" stroke-width="1" fill="none" fill-rule="evenodd">
        <g id="Baza-wiedzy---Post---Desktop-1200px" transform="translate(-767.000000, -3143.000000)" fill="#FC3B56" fill-rule="nonzero">
            <g id="Content-Area" transform="translate(360.000000, 151.000000)">
                <g id="Below-content" transform="translate(0.000000, 2858.000000)">
                    <g id="Ocena" transform="translate(103.000000, 30.000000)">
                        <g id="Thumb-Down" transform="translate(295.000000, 94.000000)">
                            <g id="thumb-down_red" transform="translate(9.000000, 10.000000)">
                                <path d="M18,12 L22,12 L22,0 L18,0 L18,12 Z M14,0 L5,0 C4.17,0 3.46,0.5 3.16,1.22 L0.14,8.27 C0.05,8.5 0,8.74 0,9 L0,11 C0,12.1045695 0.8954305,13 2,13 L8.31,13 L7.36,17.57 C7.34,17.67 7.33,17.77 7.33,17.88 C7.33,18.3 7.5,18.67 7.77,18.94 L8.83,20 L15.41,13.41 C15.78,13.05 16,12.55 16,12 L16,2 C16,0.89 15.1,0 14,0 Z" id="Shape"></path>
                            </g>
                        </g>
                    </g>
                </g>
            </g>
        </g>
    </g>
</svg>